<?xml version="1.0" encoding="UTF-8" standalone="no"?>
<svg xmlns="http://www.w3.org/2000/svg" version="1.2" baseProfile="tiny" viewBox="0.00 0.00 113.00 109.00">
<g stroke-width="2.00" fill="none" stroke-linecap="butt">
<path stroke="#ede8ac" vector-effect="non-scaling-stroke" d="
  M 73.34 34.50
  Q 70.63 34.21 73.17 35.21
  Q 79.13 37.54 86.63 36.63
  C 96.05 35.48 99.84 28.40 98.11 19.38
  Q 96.83 12.74 92.08 8.60
  Q 90.25 7.02 91.50 9.09
  C 94.49 14.09 97.18 22.66 93.81 28.23
  C 90.10 34.35 79.75 35.18 73.34 34.50"
/>
<path stroke="#828282" vector-effect="non-scaling-stroke" d="
  M 71.69 15.00
  A 7.00 7.00 0.0 0 0 64.69 8.00
  A 7.00 7.00 0.0 0 0 57.69 15.00
  A 7.00 7.00 0.0 0 0 64.69 22.00
  A 7.00 7.00 0.0 0 0 71.69 15.00"
/>
<path stroke="#ede8ac" vector-effect="non-scaling-stroke" d="
  M 51.23 62.34
  C 46.30 64.83 36.67 68.37 31.55 65.45
  Q 24.80 61.59 21.53 53.51
  Q 17.94 44.64 14.87 35.32
  A 0.25 0.25 0.0 0 0 14.39 35.40
  C 14.51 44.25 16.35 59.43 22.71 66.27
  Q 33.73 78.12 50.86 69.32"
/>
<path stroke="#828282" vector-effect="non-scaling-stroke" d="
  M 50.86 69.32
  C 49.93 77.88 45.36 84.52 40.20 91.61
  C 37.97 94.69 34.09 101.23 34.84 104.71
  Q 34.88 104.89 34.94 104.71
  Q 38.32 95.47 44.95 89.81
  Q 49.87 85.61 50.64 84.73
  Q 57.82 76.47 60.26 65.36"
/>
<path stroke="#ede8ac" vector-effect="non-scaling-stroke" d="
  M 60.26 65.36
  L 89.88 54.68
  A 0.56 0.56 0.0 0 0 89.68 53.59
  Q 74.37 53.75 59.73 58.66"
/>
<path stroke="#828282" vector-effect="non-scaling-stroke" d="
  M 59.73 58.66
  Q 59.89 50.80 61.62 46.10
  C 62.72 43.11 65.21 37.66 64.65 34.57
  C 63.91 30.47 59.55 26.16 56.30 23.87
  Q 53.39 21.82 48.73 20.86
  Q 33.93 17.83 17.76 17.68
  Q 16.96 17.68 16.43 18.11
  A 0.36 0.36 0.0 0 0 16.61 18.74
  C 30.92 20.78 56.47 23.72 50.92 45.40
  C 49.53 50.81 50.59 56.84 51.23 62.34"
/>
<path stroke="#6f6a2f" vector-effect="non-scaling-stroke" d="
  M 59.73 58.66
  L 51.23 62.34"
/>
<path stroke="#6f6a2f" vector-effect="non-scaling-stroke" d="
  M 60.26 65.36
  L 50.86 69.32"
/>
</g>
<path fill="none" d="
  M 0.00 0.00
  L 113.00 0.00
  L 113.00 109.00
  L 0.00 109.00
  L 0.00 0.00
  Z
  M 73.34 34.50
  Q 70.63 34.21 73.17 35.21
  Q 79.13 37.54 86.63 36.63
  C 96.05 35.48 99.84 28.40 98.11 19.38
  Q 96.83 12.74 92.08 8.60
  Q 90.25 7.02 91.50 9.09
  C 94.49 14.09 97.18 22.66 93.81 28.23
  C 90.10 34.35 79.75 35.18 73.34 34.50
  Z
  M 71.69 15.00
  A 7.00 7.00 0.0 0 0 64.69 8.00
  A 7.00 7.00 0.0 0 0 57.69 15.00
  A 7.00 7.00 0.0 0 0 64.69 22.00
  A 7.00 7.00 0.0 0 0 71.69 15.00
  Z
  M 51.23 62.34
  C 46.30 64.83 36.67 68.37 31.55 65.45
  Q 24.80 61.59 21.53 53.51
  Q 17.94 44.64 14.87 35.32
  A 0.25 0.25 0.0 0 0 14.39 35.40
  C 14.51 44.25 16.35 59.43 22.71 66.27
  Q 33.73 78.12 50.86 69.32
  C 49.93 77.88 45.36 84.52 40.20 91.61
  C 37.97 94.69 34.09 101.23 34.84 104.71
  Q 34.88 104.89 34.94 104.71
  Q 38.32 95.47 44.95 89.81
  Q 49.87 85.61 50.64 84.73
  Q 57.82 76.47 60.26 65.36
  L 89.88 54.68
  A 0.56 0.56 0.0 0 0 89.68 53.59
  Q 74.37 53.75 59.73 58.66
  Q 59.89 50.80 61.62 46.10
  C 62.72 43.11 65.21 37.66 64.65 34.57
  C 63.91 30.47 59.55 26.16 56.30 23.87
  Q 53.39 21.82 48.73 20.86
  Q 33.93 17.83 17.76 17.68
  Q 16.96 17.68 16.43 18.11
  A 0.36 0.36 0.0 0 0 16.61 18.74
  C 30.92 20.78 56.47 23.72 50.92 45.40
  C 49.53 50.81 50.59 56.84 51.23 62.34
  Z"
/>
<path fill="#dad058" d="
  M 73.34 34.50
  C 79.75 35.18 90.10 34.35 93.81 28.23
  C 97.18 22.66 94.49 14.09 91.50 9.09
  Q 90.25 7.02 92.08 8.60
  Q 96.83 12.74 98.11 19.38
  C 99.84 28.40 96.05 35.48 86.63 36.63
  Q 79.13 37.54 73.17 35.21
  Q 70.63 34.21 73.34 34.50
  Z"
/>
<circle fill="#040405" cx="64.69" cy="15.00" r="7.00"/>
<path fill="#040405" d="
  M 59.73 58.66
  L 51.23 62.34
  C 50.59 56.84 49.53 50.81 50.92 45.40
  C 56.47 23.72 30.92 20.78 16.61 18.74
  A 0.36 0.36 0.0 0 1 16.43 18.11
  Q 16.96 17.68 17.76 17.68
  Q 33.93 17.83 48.73 20.86
  Q 53.39 21.82 56.30 23.87
  C 59.55 26.16 63.91 30.47 64.65 34.57
  C 65.21 37.66 62.72 43.11 61.62 46.10
  Q 59.89 50.80 59.73 58.66
  Z"
/>
<path fill="#dad058" d="
  M 51.23 62.34
  L 59.73 58.66
  Q 74.37 53.75 89.68 53.59
  A 0.56 0.56 0.0 0 1 89.88 54.68
  L 60.26 65.36
  L 50.86 69.32
  Q 33.73 78.12 22.71 66.27
  C 16.35 59.43 14.51 44.25 14.39 35.40
  A 0.25 0.25 0.0 0 1 14.87 35.32
  Q 17.94 44.64 21.53 53.51
  Q 24.80 61.59 31.55 65.45
  C 36.67 68.37 46.30 64.83 51.23 62.34
  Z"
/>
<path fill="#040405" d="
  M 60.26 65.36
  Q 57.82 76.47 50.64 84.73
  Q 49.87 85.61 44.95 89.81
  Q 38.32 95.47 34.94 104.71
  Q 34.88 104.89 34.84 104.71
  C 34.09 101.23 37.97 94.69 40.20 91.61
  C 45.36 84.52 49.93 77.88 50.86 69.32
  L 60.26 65.36
  Z"
/>
</svg>
