<?xml version="1.0" encoding="UTF-8" standalone="no"?>
<svg xmlns="http://www.w3.org/2000/svg" version="1.2" baseProfile="tiny" viewBox="0.00 0.00 400.00 177.00">
<g stroke-width="2.00" fill="none" stroke-linecap="butt">
<path stroke="#ede8ae" vector-effect="non-scaling-stroke" d="
  M 238.68 34.52
  Q 236.66 34.38 238.55 35.11
  C 246.59 38.20 260.88 38.56 263.94 27.98
  C 266.03 20.78 262.75 12.77 257.48 7.60
  A 0.31 0.31 0.0 0 0 256.99 7.98
  C 260.32 13.93 263.78 23.56 258.88 29.42
  C 254.62 34.50 245.10 34.95 238.68 34.52"
/>
<path stroke="#818181" vector-effect="non-scaling-stroke" d="
  M 237.69 15.00
  A 7.00 7.00 0.0 0 0 230.69 8.00
  A 7.00 7.00 0.0 0 0 223.69 15.00
  A 7.00 7.00 0.0 0 0 230.69 22.00
  A 7.00 7.00 0.0 0 0 237.69 15.00"
/>
<path stroke="#ede8ae" vector-effect="non-scaling-stroke" d="
  M 217.22 62.38
  Q 210.49 65.72 203.23 66.35
  C 189.56 67.53 183.95 44.64 180.89 35.22
  A 0.30 0.30 0.0 0 0 180.30 35.33
  Q 180.70 44.12 182.65 52.94
  Q 184.47 61.20 186.72 64.05
  Q 198.51 78.98 216.85 69.28"
/>
<path stroke="#818181" vector-effect="non-scaling-stroke" d="
  M 216.85 69.28
  C 215.97 77.77 211.57 84.14 206.51 91.20
  C 203.17 95.85 201.38 99.26 200.72 104.42
  A 0.18 0.18 0.0 0 0 201.07 104.50
  Q 203.88 95.94 210.31 90.36
  Q 215.89 85.53 216.23 85.15
  Q 223.75 76.82 226.26 65.37"
/>
<path stroke="#ede8ae" vector-effect="non-scaling-stroke" d="
  M 226.26 65.37
  Q 240.34 59.83 255.51 54.79
  Q 256.40 54.49 256.28 53.89
  A 0.56 0.56 0.0 0 0 255.71 53.45
  C 245.92 53.86 234.62 54.89 225.67 58.92"
/>
<path stroke="#818181" vector-effect="non-scaling-stroke" d="
  M 225.67 58.92
  Q 226.08 48.82 229.91 39.54
  C 232.60 33.01 226.96 26.83 221.95 23.63
  Q 218.46 21.41 212.08 20.33
  C 202.36 18.69 192.45 17.27 182.56 17.87
  A 0.42 0.42 0.0 0 0 182.52 18.70
  C 193.52 20.20 204.67 21.42 213.35 29.13
  C 218.67 33.85 218.23 39.55 216.77 46.06
  C 215.57 51.37 216.67 57.02 217.22 62.38"
/>
<path stroke="#6f6a30" vector-effect="non-scaling-stroke" d="
  M 225.67 58.92
  L 217.22 62.38"
/>
<path stroke="#6f6a30" vector-effect="non-scaling-stroke" d="
  M 226.26 65.37
  L 216.85 69.28"
/>
<path stroke="#818181" vector-effect="non-scaling-stroke" d="
  M 129.18 102.54
  Q 133.47 107.15 137.39 112.08
  C 138.84 113.90 143.52 113.27 145.62 113.27
  A 0.39 0.39 0.0 0 0 145.91 112.62
  L 135.25 100.73
  Q 134.91 100.35 135.25 99.97
  L 145.66 88.39
  A 0.55 0.55 0.0 0 0 145.24 87.47
  L 139.07 87.54
  Q 138.47 87.54 138.08 87.99
  L 129.19 98.22
  A 0.37 0.36 65.5 0 1 128.55 97.98
  L 128.59 79.49
  Q 128.59 78.89 127.99 78.89
  L 123.17 78.90
  Q 122.50 78.90 122.50 79.58
  L 122.50 112.75
  Q 122.50 113.24 123.00 113.24
  L 127.94 113.25
  A 0.68 0.68 0.0 0 0 128.62 112.56
  L 128.57 102.78
  A 0.35 0.35 0.0 0 1 129.18 102.54"
/>
<path stroke="#818181" vector-effect="non-scaling-stroke" d="
  M 285.13 79.41
  A 0.47 0.47 0.0 0 0 284.66 78.94
  L 279.94 78.94
  A 0.47 0.47 0.0 0 0 279.47 79.41
  L 279.47 112.77
  A 0.47 0.47 0.0 0 0 279.94 113.24
  L 284.66 113.24
  A 0.47 0.47 0.0 0 0 285.13 112.77
  L 285.13 79.41"
/>
<path stroke="#818181" vector-effect="non-scaling-stroke" d="
  M 229.91 113.25
  A 0.38 0.38 0.0 0 0 230.29 112.87
  L 230.23 100.58
  A 0.38 0.38 0.0 0 1 230.90 100.33
  L 242.04 113.12
  A 0.38 0.38 0.0 0 0 242.32 113.25
  L 249.30 113.25
  A 0.38 0.38 0.0 0 0 249.58 112.62
  L 236.88 98.47
  A 0.38 0.38 0.0 0 1 236.88 97.97
  L 249.61 83.76
  A 0.38 0.38 0.0 0 0 249.32 83.13
  L 242.33 83.22
  A 0.38 0.38 0.0 0 0 242.05 83.35
  L 230.89 96.08
  A 0.38 0.38 0.0 0 1 230.23 95.83
  L 230.31 83.60
  A 0.38 0.38 0.0 0 0 229.93 83.22
  L 224.65 83.17
  A 0.38 0.38 0.0 0 0 224.27 83.55
  L 224.25 112.85
  A 0.38 0.38 0.0 0 0 224.63 113.23
  L 229.91 113.25"
/>
<path stroke="#818181" vector-effect="non-scaling-stroke" d="
  M 61.67 93.95
  A 0.31 0.31 0.0 0 1 62.28 94.06
  L 62.23 112.94
  A 0.31 0.31 0.0 0 0 62.54 113.25
  L 67.92 113.25
  A 0.31 0.31 0.0 0 0 68.23 112.94
  L 68.22 83.50
  A 0.31 0.31 0.0 0 0 67.91 83.19
  L 59.64 83.24
  A 0.31 0.31 0.0 0 0 59.35 83.44
  L 51.72 104.50
  A 0.31 0.31 0.0 0 1 51.14 104.50
  L 43.56 83.38
  A 0.31 0.31 0.0 0 0 43.27 83.17
  L 35.07 83.22
  A 0.31 0.31 0.0 0 0 34.76 83.53
  L 34.76 112.93
  A 0.31 0.31 0.0 0 0 35.07 113.24
  L 40.46 113.25
  A 0.31 0.31 0.0 0 0 40.77 112.94
  L 40.76 93.97
  A 0.31 0.31 0.0 0 1 41.36 93.86
  L 48.12 113.05
  A 0.31 0.31 0.0 0 0 48.41 113.26
  L 54.53 113.27
  A 0.31 0.31 0.0 0 0 54.82 113.06
  L 61.67 93.95"
/>
<path stroke="#818181" vector-effect="non-scaling-stroke" d="
  M 89.41 97.08
  C 85.60 97.28 79.97 96.51 76.46 97.55
  C 69.89 99.49 70.45 112.73 77.74 113.16
  Q 82.66 113.46 94.97 113.17
  Q 95.48 113.16 95.48 112.65
  Q 95.54 105.77 95.50 98.85
  Q 95.47 93.82 94.01 91.56
  C 90.34 85.91 80.03 87.44 74.09 87.52
  Q 73.59 87.53 73.59 88.03
  L 73.60 91.95
  A 0.58 0.58 0.0 0 0 74.20 92.53
  C 79.69 92.34 88.94 90.95 89.88 96.49
  Q 89.98 97.05 89.41 97.08"
/>
<path stroke="#818181" vector-effect="non-scaling-stroke" d="
  M 113.52 93.03
  L 113.43 97.32
  A 0.61 0.61 0.0 0 0 114.07 97.95
  L 118.61 97.76
  Q 119.20 97.74 119.19 97.14
  L 119.11 88.21
  Q 119.11 87.80 118.70 87.76
  Q 110.07 86.86 106.83 87.80
  C 99.23 90.00 99.77 94.99 99.74 102.45
  Q 99.71 107.58 99.77 112.73
  Q 99.78 113.24 100.29 113.25
  L 104.81 113.25
  Q 105.38 113.25 105.39 112.68
  Q 105.45 104.71 105.57 96.75
  C 105.63 92.91 109.79 92.08 112.93 92.38
  Q 113.53 92.43 113.52 93.03"
/>
<path stroke="#818181" vector-effect="non-scaling-stroke" d="
  M 165.00 108.14
  C 160.50 108.69 154.01 108.99 154.02 103.24
  Q 154.04 95.72 154.05 88.10
  Q 154.05 87.51 153.46 87.51
  L 149.00 87.50
  Q 148.42 87.50 148.41 88.08
  C 148.32 93.52 147.96 101.85 148.46 105.36
  C 149.87 115.25 162.20 113.39 170.75 113.18
  Q 171.18 113.17 171.18 112.74
  L 171.14 87.95
  Q 171.14 87.50 170.70 87.50
  L 166.12 87.51
  Q 165.49 87.51 165.49 88.13
  L 165.51 107.56
  Q 165.51 108.07 165.00 108.14"
/>
<path stroke="#818181" vector-effect="non-scaling-stroke" d="
  M 181.57 97.04
  A 2.49 2.47 31.6 0 1 180.88 94.19
  C 181.41 92.95 182.55 92.49 183.92 92.46
  Q 190.49 92.33 197.15 92.50
  Q 197.74 92.51 197.74 91.93
  L 197.75 88.21
  Q 197.75 87.54 197.07 87.53
  Q 190.60 87.45 184.14 87.53
  C 178.78 87.59 175.91 88.83 175.60 94.50
  C 174.82 108.52 191.06 99.42 193.04 104.49
  C 194.14 107.29 191.61 108.29 189.26 108.30
  Q 183.15 108.32 176.96 108.30
  Q 176.30 108.30 176.30 108.96
  L 176.29 112.56
  Q 176.29 113.20 176.93 113.21
  Q 183.98 113.30 190.98 113.35
  C 198.83 113.41 201.08 103.30 195.83 99.36
  C 191.72 96.27 184.53 99.54 181.57 97.04"
/>
<path stroke="#818181" vector-effect="non-scaling-stroke" d="
  M 268.71 97.08
  C 264.64 97.28 258.17 96.56 255.20 97.86
  C 250.07 100.12 249.77 108.84 254.13 111.93
  Q 255.97 113.24 260.61 113.25
  Q 267.53 113.26 274.39 113.24
  A 0.47 0.47 0.0 0 0 274.86 112.77
  Q 274.76 105.14 274.79 97.49
  C 274.84 85.50 262.85 87.28 253.42 87.60
  Q 252.86 87.62 252.88 88.18
  L 252.97 92.00
  A 0.54 0.54 0.0 0 0 253.52 92.52
  C 259.18 92.34 268.17 90.93 269.16 96.51
  Q 269.26 97.06 268.71 97.08"
/>
<path stroke="#818181" vector-effect="non-scaling-stroke" d="
  M 306.34 108.06
  C 301.54 108.82 295.37 108.95 295.36 102.99
  Q 295.36 95.59 295.42 88.12
  Q 295.43 87.51 294.81 87.51
  L 290.28 87.50
  Q 289.68 87.50 289.68 88.11
  Q 289.70 95.12 289.73 102.16
  C 289.75 108.53 292.05 112.83 298.77 113.17
  Q 303.59 113.42 312.04 113.19
  Q 312.49 113.18 312.49 112.72
  L 312.50 88.13
  Q 312.50 87.51 311.88 87.51
  L 307.25 87.50
  Q 306.76 87.50 306.76 88.00
  L 306.80 107.53
  Q 306.80 107.99 306.34 108.06"
/>
<path stroke="#818181" vector-effect="non-scaling-stroke" d="
  M 331.04 92.96
  Q 325.00 99.87 318.55 106.42
  C 316.63 108.37 316.47 110.25 316.93 112.77
  Q 317.02 113.25 317.51 113.25
  L 338.38 113.25
  Q 339.00 113.25 339.00 112.62
  L 339.00 108.92
  Q 339.00 108.31 338.39 108.31
  L 324.77 108.30
  A 0.33 0.32 -67.9 0 1 324.54 107.75
  Q 331.26 100.76 337.63 93.78
  C 339.30 91.96 339.24 90.24 338.98 87.95
  Q 338.92 87.50 338.47 87.50
  L 317.28 87.51
  Q 316.81 87.51 316.81 87.97
  L 316.83 91.76
  A 0.69 0.69 0.0 0 0 317.52 92.45
  L 330.78 92.40
  Q 331.53 92.39 331.04 92.96"
/>
<path stroke="#818181" vector-effect="non-scaling-stroke" d="
  M 359.62 97.07
  C 353.28 97.46 342.33 94.57 341.95 104.73
  Q 341.64 113.16 350.00 113.25
  Q 357.49 113.32 365.14 113.22
  Q 365.68 113.21 365.68 112.67
  Q 365.70 106.59 365.71 100.51
  Q 365.71 94.69 364.82 92.57
  C 362.06 86.06 351.72 87.36 344.35 87.59
  Q 343.75 87.61 343.75 88.21
  L 343.75 91.80
  Q 343.75 92.50 344.45 92.49
  C 350.19 92.39 358.74 90.90 360.05 96.49
  Q 360.18 97.03 359.62 97.07"
/>
<path stroke="#818181" vector-effect="non-scaling-stroke" d="
  M 84.9712 124.9315
  A 0.55 0.55 0.0 0 0 84.4221 124.3806
  L 83.8021 124.3795
  A 0.55 0.55 0.0 0 0 83.2512 124.9285
  L 83.2288 137.7485
  A 0.55 0.55 0.0 0 0 83.7779 138.2994
  L 84.3979 138.3005
  A 0.55 0.55 0.0 0 0 84.9488 137.7515
  L 84.9712 124.9315"
/>
<path stroke="#818181" vector-effect="non-scaling-stroke" d="
  M 96.28 134.26
  C 95.54 138.23 89.92 137.88 89.87 133.24
  Q 89.81 127.88 89.93 125.49
  Q 89.96 124.86 89.68 124.59
  Q 89.28 124.20 88.61 124.42
  Q 88.14 124.57 88.12 125.05
  C 87.85 130.43 86.67 139.28 93.76 138.44
  C 99.46 137.77 98.56 129.05 98.00 124.76
  Q 97.94 124.25 97.42 124.28
  L 97.08 124.30
  A 0.68 0.68 0.0 0 0 96.44 125.01
  Q 96.69 132.04 96.28 134.26"
/>
<path stroke="#818181" vector-effect="non-scaling-stroke" d="
  M 103.84 128.46
  L 106.89 137.69
  A 0.89 0.89 0.0 0 0 108.58 137.71
  L 112.02 127.95
  A 0.32 0.32 0.0 0 1 112.64 128.04
  L 113.09 137.58
  Q 113.13 138.28 113.83 138.26
  L 114.33 138.25
  Q 114.89 138.23 114.85 137.68
  L 114.12 125.42
  A 1.32 1.31 -36.9 0 0 111.57 125.06
  L 108.20 134.50
  A 0.38 0.38 0.0 0 1 107.49 134.49
  L 104.40 125.19
  A 1.34 1.34 0.0 0 0 101.79 125.52
  L 100.91 137.59
  Q 100.87 138.12 101.38 138.28
  Q 101.88 138.44 102.24 138.20
  Q 102.63 137.93 102.66 137.17
  Q 102.84 132.85 103.14 128.54
  A 0.36 0.36 0.0 0 1 103.84 128.46"
/>
<path stroke="#818181" vector-effect="non-scaling-stroke" d="
  M 155.09 127.42
  Q 156.98 124.79 160.00 126.26
  A 0.51 0.51 0.0 0 0 160.69 126.00
  Q 161.11 125.03 160.32 124.72
  C 157.53 123.62 153.34 124.59 153.39 128.20
  C 153.43 130.69 157.10 131.93 158.98 132.86
  A 1.94 1.94 0.0 0 1 158.97 136.35
  Q 156.48 137.55 154.11 136.25
  A 0.51 0.51 0.0 0 0 153.35 136.75
  L 153.42 137.32
  Q 153.47 137.76 153.87 137.93
  C 157.31 139.37 163.73 137.47 160.95 132.63
  C 159.88 130.75 156.99 130.37 155.22 128.72
  A 0.99 0.98 39.7 0 1 155.09 127.42"
/>
<path stroke="#818181" vector-effect="non-scaling-stroke" d="
  M 169.2315 138.5775
  A 7.20 6.34 91.5 0 0 175.7578 131.5460
  A 7.20 6.34 91.5 0 0 169.6085 124.1825
  A 7.20 6.34 91.5 0 0 163.0822 131.2140
  A 7.20 6.34 91.5 0 0 169.2315 138.5775"
/>
<path stroke="#818181" vector-effect="non-scaling-stroke" d="
  M 180.02 127.86
  Q 183.30 132.70 186.20 137.78
  Q 186.39 138.11 186.68 138.25
  Q 187.09 138.45 187.36 138.43
  Q 188.23 138.39 188.24 137.52
  Q 188.28 131.59 188.30 125.44
  Q 188.30 124.86 188.08 124.60
  Q 187.76 124.21 187.07 124.35
  A 0.68 0.67 83.9 0 0 186.53 125.03
  L 186.73 134.27
  A 0.37 0.37 0.0 0 1 186.04 134.47
  L 180.09 124.68
  A 1.12 1.12 0.0 0 0 178.02 125.27
  L 178.02 137.66
  Q 178.02 138.31 178.66 138.28
  L 179.14 138.26
  Q 179.77 138.23 179.75 137.61
  L 179.51 128.02
  Q 179.48 127.06 180.02 127.86"
/>
<path stroke="#818181" vector-effect="non-scaling-stroke" d="
  M 198.73 134.69
  L 199.94 137.80
  Q 200.11 138.26 200.60 138.27
  L 201.18 138.28
  Q 201.90 138.29 201.67 137.61
  Q 199.61 131.69 197.64 125.74
  C 197.29 124.67 196.64 124.09 195.53 124.51
  Q 195.01 124.70 194.83 125.22
  Q 192.79 131.12 190.72 136.98
  Q 190.47 137.71 190.84 138.21
  A 0.75 0.74 -52.4 0 0 192.13 138.04
  L 193.63 134.32
  A 0.78 0.76 11.7 0 1 194.38 133.84
  L 197.76 133.99
  Q 198.47 134.02 198.73 134.69"
/>
<path stroke="#818181" vector-effect="non-scaling-stroke" d="
  M 205.86 136.77
  A 0.32 0.32 0.0 0 1 205.54 136.45
  L 205.53 124.77
  A 0.32 0.32 0.0 0 0 205.24 124.46
  L 204.17 124.37
  A 0.32 0.32 0.0 0 0 203.82 124.69
  L 203.86 137.90
  A 0.32 0.32 0.0 0 0 204.18 138.22
  L 211.46 138.30
  A 0.32 0.32 0.0 0 0 211.78 137.92
  L 211.62 136.98
  A 0.32 0.32 0.0 0 0 211.30 136.71
  L 205.86 136.77"
/>
<path stroke="#818181" vector-effect="non-scaling-stroke" d="
  M 245.45 134.35
  L 246.95 138.19
  A 0.81 0.81 0.0 0 0 248.47 137.64
  Q 246.42 131.42 244.01 125.17
  Q 243.76 124.53 243.24 124.32
  A 0.99 0.98 21.6 0 0 241.94 124.88
  Q 239.65 130.84 237.49 137.05
  Q 237.27 137.68 237.68 138.11
  A 0.89 0.88 -57.6 0 0 239.15 137.78
  L 240.33 134.37
  A 0.71 0.71 0.0 0 1 241.01 133.90
  L 244.85 133.94
  A 0.67 0.65 -10.0 0 1 245.45 134.35"
/>
<path stroke="#818181" vector-effect="non-scaling-stroke" d="
  M 263.82 134.69
  L 257.90 124.89
  A 1.18 1.18 0.0 0 0 255.71 125.50
  L 255.68 137.73
  A 0.56 0.55 0.5 0 0 256.23 138.28
  L 256.76 138.28
  Q 257.31 138.28 257.30 137.74
  L 257.16 128.07
  A 0.36 0.36 0.0 0 1 257.83 127.88
  L 263.92 137.89
  A 1.08 1.08 0.0 0 0 265.93 137.34
  L 266.01 125.14
  Q 266.01 124.51 265.39 124.41
  L 264.90 124.33
  A 0.58 0.58 0.0 0 0 264.23 124.92
  L 264.38 134.53
  A 0.30 0.30 0.0 0 1 263.82 134.69"
/>
<path stroke="#818181" vector-effect="non-scaling-stroke" d="
  M 282.69 134.34
  A 0.36 0.35 28.8 0 1 282.03 134.53
  L 276.02 124.64
  A 1.09 1.09 0.0 0 0 274.00 125.19
  Q 273.91 131.04 273.91 137.35
  Q 273.91 137.87 274.13 138.09
  Q 274.45 138.43 275.02 138.24
  Q 275.54 138.05 275.54 137.49
  L 275.50 128.02
  A 0.34 0.34 0.0 0 1 276.13 127.85
  Q 279.05 132.99 282.45 137.84
  Q 282.77 138.29 283.30 138.35
  A 0.83 0.83 0.0 0 0 284.24 137.53
  L 284.28 125.08
  Q 284.28 124.39 283.59 124.37
  L 283.15 124.36
  Q 282.45 124.34 282.47 125.05
  L 282.69 134.34"
/>
<path stroke="#818181" vector-effect="non-scaling-stroke" d="
  M 348.03 134.38
  L 349.17 137.75
  Q 349.34 138.26 349.88 138.30
  L 350.42 138.34
  A 0.48 0.48 0.0 0 0 350.91 137.72
  Q 348.99 131.57 346.88 125.48
  Q 346.43 124.19 345.11 124.40
  A 1.32 1.30 4.4 0 0 344.08 125.27
  L 339.95 137.63
  Q 339.76 138.20 340.36 138.22
  L 341.07 138.24
  Q 341.44 138.25 341.57 137.89
  L 342.86 134.42
  Q 343.03 133.95 343.53 133.95
  L 347.39 133.92
  Q 347.88 133.92 348.03 134.38"
/>
<path stroke="#818181" vector-effect="non-scaling-stroke" d="
  M 355.43 127.93
  L 358.86 137.77
  A 0.84 0.84 0.0 0 0 360.45 137.78
  L 363.92 127.92
  A 0.31 0.31 0.0 0 1 364.52 128.01
  Q 364.78 132.79 365.02 137.75
  Q 365.06 138.52 365.90 138.41
  A 0.52 0.52 0.0 0 0 366.37 137.88
  L 366.10 125.28
  A 1.33 1.33 0.0 0 0 363.52 124.86
  L 360.04 134.67
  A 0.28 0.28 0.0 0 1 359.51 134.67
  L 356.21 125.12
  A 1.30 1.30 0.0 0 0 353.69 125.45
  L 352.79 137.62
  Q 352.74 138.25 353.37 138.26
  L 353.98 138.27
  Q 354.48 138.28 354.50 137.77
  L 354.98 128.00
  A 0.23 0.23 0.0 0 1 355.43 127.93"
/>
<path stroke="#818181" vector-effect="non-scaling-stroke" d="
  M 37.09 132.81
  C 45.80 133.99 45.70 122.09 35.37 124.69
  Q 34.76 124.84 34.76 125.47
  L 34.78 137.60
  A 0.70 0.70 0.0 0 0 35.33 138.28
  L 35.81 138.39
  A 0.57 0.57 0.0 0 0 36.51 137.84
  L 36.54 133.29
  Q 36.54 132.73 37.09 132.81"
/>
<path stroke="#818181" vector-effect="non-scaling-stroke" d="
  M 52.43 131.43
  Q 55.61 128.67 52.91 125.02
  A 0.79 0.78 72.8 0 0 52.33 124.71
  L 46.40 124.44
  A 0.62 0.62 0.0 0 0 45.75 125.06
  L 45.75 137.63
  Q 45.74 138.26 46.38 138.32
  L 46.79 138.36
  Q 47.50 138.42 47.50 137.71
  L 47.48 133.01
  Q 47.48 132.40 48.08 132.29
  C 51.94 131.59 52.02 135.70 52.95 138.11
  A 0.76 0.76 0.0 0 0 54.42 137.76
  Q 54.06 134.68 52.33 132.19
  Q 52.04 131.77 52.43 131.43"
/>
<path stroke="#818181" vector-effect="non-scaling-stroke" d="
  M 58.50 129.82
  L 58.45 126.63
  A 0.64 0.64 0.0 0 1 59.12 125.98
  L 63.61 126.15
  A 0.58 0.58 0.0 0 0 64.21 125.62
  L 64.25 125.02
  Q 64.29 124.50 63.77 124.50
  L 57.48 124.50
  Q 56.71 124.51 56.71 125.27
  L 56.74 137.75
  A 0.52 0.52 0.0 0 0 57.25 138.27
  L 63.83 138.28
  A 0.60 0.59 -12.1 0 0 64.38 137.44
  L 64.23 137.10
  A 0.66 0.66 0.0 0 0 63.61 136.71
  L 59.10 136.76
  Q 58.43 136.77 58.44 136.10
  L 58.48 132.29
  A 0.67 0.67 0.0 0 1 59.25 131.64
  Q 61.25 131.95 63.28 131.77
  A 0.77 0.77 0.0 0 0 63.19 130.23
  L 59.07 130.36
  Q 58.50 130.38 58.50 129.82"
/>
<path stroke="#818181" vector-effect="non-scaling-stroke" d="
  M 78.17 127.78
  L 78.62 137.67
  A 0.75 0.74 -0.4 0 0 79.35 138.38
  L 79.77 138.39
  A 0.55 0.55 0.0 0 0 80.33 137.81
  L 79.68 125.49
  A 1.34 1.33 53.4 0 0 77.09 125.10
  L 73.70 134.55
  Q 73.38 135.43 73.08 134.54
  L 69.84 125.20
  A 1.32 1.32 0.0 0 0 67.28 125.54
  L 66.47 137.55
  Q 66.43 138.19 67.05 138.27
  L 67.48 138.33
  Q 68.10 138.41 68.14 137.78
  L 68.65 127.77
  A 0.22 0.22 0.0 0 1 69.08 127.71
  L 72.38 137.59
  A 0.93 0.93 0.0 0 0 74.13 137.61
  L 77.70 127.71
  A 0.24 0.24 0.0 0 1 78.17 127.78"
/>
<path stroke="#818181" vector-effect="non-scaling-stroke" d="
  M 124.22 132.92
  C 133.18 133.28 132.65 122.50 122.40 124.71
  Q 121.97 124.80 121.97 125.25
  L 121.98 137.77
  A 0.53 0.53 0.0 0 0 122.53 138.30
  L 123.13 138.27
  A 0.63 0.63 0.0 0 0 123.73 137.62
  L 123.59 133.55
  A 0.61 0.60 -0.4 0 1 124.22 132.92"
/>
<path stroke="#818181" vector-effect="non-scaling-stroke" d="
  M 135.21 125.95
  L 139.54 126.19
  Q 140.08 126.22 140.26 125.71
  L 140.37 125.38
  A 0.66 0.65 -80.4 0 0 139.76 124.51
  L 133.40 124.52
  A 0.62 0.62 0.0 0 0 132.78 125.14
  L 132.76 137.50
  Q 132.76 138.25 133.50 138.25
  L 140.02 138.28
  Q 140.57 138.28 140.53 137.73
  L 140.51 137.33
  A 0.66 0.66 0.0 0 0 139.84 136.71
  L 135.13 136.76
  A 0.63 0.63 0.0 0 1 134.49 136.13
  L 134.53 132.34
  A 0.61 0.61 0.0 0 1 135.16 131.74
  L 139.46 131.81
  A 0.59 0.59 0.0 0 0 140.03 131.02
  Q 139.67 129.99 138.48 130.17
  Q 136.87 130.43 135.19 130.36
  Q 134.51 130.34 134.52 129.65
  L 134.57 126.54
  Q 134.58 125.92 135.21 125.95"
/>
<path stroke="#818181" vector-effect="non-scaling-stroke" d="
  M 145.25 132.18
  L 147.68 132.48
  Q 148.33 132.56 148.52 133.18
  L 149.92 137.76
  Q 150.07 138.25 150.59 138.26
  L 151.02 138.26
  A 0.62 0.62 0.0 0 0 151.62 137.44
  L 149.72 131.92
  Q 149.56 131.44 149.93 131.11
  Q 152.05 129.20 150.87 126.16
  A 1.21 1.17 5.1 0 0 150.36 125.57
  Q 147.09 123.68 143.30 124.73
  Q 142.88 124.84 142.88 125.28
  L 142.92 137.61
  Q 142.92 138.31 143.61 138.30
  L 144.09 138.30
  Q 144.59 138.29 144.59 137.79
  L 144.59 132.76
  A 0.58 0.58 0.0 0 1 145.25 132.18"
/>
<path stroke="#818181" vector-effect="non-scaling-stroke" d="
  M 219.72 126.61
  L 219.69 137.54
  A 0.90 0.90 0.0 0 0 221.40 137.93
  Q 221.72 137.25 221.67 136.23
  Q 221.39 131.42 221.47 126.52
  Q 221.48 125.94 222.06 125.98
  L 224.87 126.14
  Q 225.42 126.17 225.49 125.63
  L 225.57 125.06
  Q 225.65 124.48 225.06 124.48
  L 215.97 124.53
  Q 215.37 124.53 215.36 125.13
  L 215.35 125.55
  Q 215.34 126.17 215.96 126.14
  L 219.11 126.02
  Q 219.72 126.00 219.72 126.61"
/>
<path stroke="#818181" vector-effect="non-scaling-stroke" d="
  M 229.42 132.31
  C 233.46 131.72 233.43 135.01 234.10 137.84
  A 0.90 0.90 0.0 0 0 235.86 137.50
  Q 235.41 134.53 233.79 132.13
  Q 233.50 131.70 233.89 131.36
  C 236.97 128.69 235.88 125.07 231.98 124.48
  Q 229.95 124.17 227.81 124.67
  A 0.82 0.81 -6.8 0 0 227.18 125.46
  L 227.18 137.83
  Q 227.18 138.24 227.58 138.25
  L 228.35 138.26
  Q 228.97 138.27 228.95 137.65
  L 228.81 133.03
  Q 228.79 132.40 229.42 132.31"
/>
<path stroke="#818181" vector-effect="non-scaling-stroke" d="
  M 252.48 125.13
  A 0.70 0.70 0.0 0 0 251.78 124.43
  L 251.46 124.43
  A 0.70 0.70 0.0 0 0 250.76 125.13
  L 250.76 137.65
  A 0.70 0.70 0.0 0 0 251.46 138.35
  L 251.78 138.35
  A 0.70 0.70 0.0 0 0 252.48 137.65
  L 252.48 125.13"
/>
<path stroke="#818181" vector-effect="non-scaling-stroke" d="
  M 270.7812 124.9215
  A 0.44 0.44 0.0 0 0 270.3420 124.4807
  L 269.5420 124.4793
  A 0.44 0.44 0.0 0 0 269.1012 124.9185
  L 269.0788 137.7785
  A 0.44 0.44 0.0 0 0 269.5180 138.2193
  L 270.3180 138.2207
  A 0.44 0.44 0.0 0 0 270.7588 137.7815
  L 270.7812 124.9215"
/>
<path stroke="#818181" vector-effect="non-scaling-stroke" d="
  M 296.33 133.28
  L 296.32 135.76
  Q 296.32 136.25 295.86 136.41
  C 286.03 139.97 285.47 122.85 296.56 126.35
  A 0.69 0.68 11.4 0 0 297.46 125.76
  Q 297.55 124.83 296.80 124.67
  C 283.68 121.82 282.41 140.46 296.56 138.23
  Q 297.98 138.01 297.95 136.57
  L 297.84 131.51
  Q 297.83 130.94 297.26 130.94
  L 293.83 130.93
  A 0.64 0.63 50.5 0 0 293.71 132.19
  L 295.76 132.59
  Q 296.33 132.70 296.33 133.28"
/>
<path stroke="#818181" vector-effect="non-scaling-stroke" d="
  M 325.39 126.25
  Q 326.95 126.04 328.50 126.03
  Q 329.45 126.02 329.19 125.02
  Q 329.05 124.51 328.52 124.51
  L 319.37 124.53
  A 0.55 0.55 0.0 0 0 318.83 125.15
  L 318.89 125.52
  Q 318.96 126.06 319.51 126.07
  L 322.64 126.11
  Q 323.17 126.11 323.18 126.64
  L 323.26 137.76
  Q 323.26 138.27 323.77 138.31
  L 324.21 138.34
  Q 324.86 138.39 324.87 137.73
  L 324.93 126.77
  A 0.53 0.52 -3.7 0 1 325.39 126.25"
/>
<path stroke="#818181" vector-effect="non-scaling-stroke" d="
  M 332.40 129.89
  L 332.40 126.76
  A 0.71 0.70 -89.6 0 1 333.11 126.05
  Q 335.13 126.05 337.12 126.13
  Q 337.61 126.15 337.86 125.92
  Q 338.17 125.64 338.20 125.16
  Q 338.23 124.50 337.57 124.50
  L 331.46 124.51
  Q 330.68 124.51 330.68 125.29
  L 330.59 137.67
  A 0.58 0.58 0.0 0 0 331.17 138.25
  L 337.97 138.30
  Q 338.44 138.30 338.44 137.83
  Q 338.45 136.66 337.25 136.71
  Q 334.67 136.81 333.05 136.70
  Q 332.35 136.65 332.37 135.95
  L 332.48 132.36
  Q 332.50 131.72 333.14 131.73
  L 337.20 131.81
  Q 337.72 131.82 337.81 131.31
  L 337.91 130.80
  Q 338.02 130.20 337.41 130.22
  L 332.90 130.37
  Q 332.40 130.39 332.40 129.89"
/>
<path stroke="#818181" vector-effect="non-scaling-stroke" d="
  M 310.65 131.99
  A 0.41 0.41 0.0 0 1 310.28 131.63
  L 309.89 127.63
  A 0.41 0.41 0.0 0 0 309.07 127.63
  L 308.66 131.62
  A 0.41 0.41 0.0 0 1 308.30 131.99
  L 304.30 132.38
  A 0.41 0.41 0.0 0 0 304.30 133.20
  L 308.29 133.61
  A 0.41 0.41 0.0 0 1 308.66 133.97
  L 309.05 137.97
  A 0.41 0.41 0.0 0 0 309.87 137.97
  L 310.28 133.98
  A 0.41 0.41 0.0 0 1 310.64 133.61
  L 314.64 133.22
  A 0.41 0.41 0.0 0 0 314.64 132.40
  L 310.65 131.99"
/>
<path stroke="#ede8ae" vector-effect="non-scaling-stroke" d="
  M 132.29 161.76
  A 0.56 0.56 0.0 0 1 132.46 162.28
  L 131.30 168.29
  A 0.56 0.56 0.0 0 0 132.12 168.89
  L 137.55 165.98
  A 0.56 0.56 0.0 0 1 138.07 165.98
  L 143.40 168.81
  A 0.56 0.56 0.0 0 0 144.22 168.22
  L 143.12 162.29
  A 0.56 0.56 0.0 0 1 143.29 161.77
  L 147.80 157.63
  A 0.56 0.56 0.0 0 0 147.51 156.67
  L 141.22 155.72
  A 0.56 0.56 0.0 0 1 140.79 155.41
  L 138.30 150.03
  A 0.56 0.56 0.0 0 0 137.30 150.01
  L 134.46 155.54
  A 0.56 0.56 0.0 0 1 134.04 155.84
  L 128.07 156.62
  A 0.56 0.56 0.0 0 0 127.76 157.58
  L 132.29 161.76"
/>
<path stroke="#ede8ae" vector-effect="non-scaling-stroke" d="
  M 166.40 155.44
  A 0.58 0.58 0.0 0 1 165.97 155.75
  L 159.99 156.66
  A 0.58 0.58 0.0 0 0 159.68 157.66
  L 164.15 161.84
  A 0.58 0.58 0.0 0 1 164.32 162.38
  L 163.02 168.51
  A 0.58 0.58 0.0 0 0 163.89 169.12
  L 169.02 165.98
  A 0.58 0.58 0.0 0 1 169.58 165.95
  L 175.13 168.72
  A 0.58 0.58 0.0 0 0 175.96 168.10
  L 174.94 162.15
  A 0.58 0.58 0.0 0 1 175.13 161.62
  L 179.68 157.72
  A 0.58 0.58 0.0 0 0 179.39 156.70
  L 173.17 155.78
  A 0.58 0.58 0.0 0 1 172.73 155.45
  L 170.19 150.04
  A 0.58 0.58 0.0 0 0 169.14 150.02
  L 166.40 155.44"
/>
<path stroke="#ede8ae" vector-effect="non-scaling-stroke" d="
  M 228.26 155.79
  L 222.40 156.63
  A 0.65 0.64 -28.3 0 0 222.06 157.75
  L 226.24 161.48
  A 1.09 1.07 27.1 0 1 226.58 162.51
  L 225.46 168.02
  A 0.71 0.71 0.0 0 0 226.46 168.80
  C 228.33 167.89 231.62 165.28 233.59 166.63
  Q 235.81 168.15 237.86 168.82
  Q 238.56 169.05 238.42 168.33
  L 237.35 162.71
  Q 237.24 162.12 237.68 161.71
  L 242.07 157.57
  A 0.55 0.54 -62.7 0 0 241.77 156.63
  L 236.49 155.94
  A 2.48 2.47 -8.1 0 1 234.54 154.48
  L 232.59 150.11
  A 0.72 0.72 0.0 0 0 231.27 150.11
  L 228.97 155.26
  A 0.92 0.92 0.0 0 1 228.26 155.79"
/>
<path stroke="#ede8ae" vector-effect="non-scaling-stroke" d="
  M 259.85 155.41
  A 0.56 0.56 0.0 0 1 259.43 155.73
  L 253.39 156.68
  A 0.56 0.56 0.0 0 0 253.09 157.64
  L 257.52 161.83
  A 0.56 0.56 0.0 0 1 257.69 162.35
  L 256.48 168.23
  A 0.56 0.56 0.0 0 0 257.29 168.84
  L 262.75 166.06
  A 0.56 0.56 0.0 0 1 263.27 166.06
  L 268.69 168.92
  A 0.56 0.56 0.0 0 0 269.50 168.32
  L 268.38 162.39
  A 0.56 0.56 0.0 0 1 268.54 161.89
  L 272.83 157.60
  A 0.56 0.56 0.0 0 0 272.52 156.65
  L 266.43 155.71
  A 0.56 0.56 0.0 0 1 266.00 155.39
  L 263.49 149.88
  A 0.56 0.56 0.0 0 0 262.47 149.87
  L 259.85 155.41"
/>
<path stroke="#ede8ae" vector-effect="non-scaling-stroke" d="
  M 197.61 155.37
  A 0.55 0.55 0.0 0 1 197.22 155.66
  L 191.10 156.79
  A 0.55 0.55 0.0 0 0 190.83 157.74
  L 195.34 161.87
  A 0.55 0.55 0.0 0 1 195.50 162.39
  L 194.19 168.38
  A 0.55 0.55 0.0 0 0 194.99 168.98
  L 200.48 166.03
  A 0.55 0.55 0.0 0 1 201.00 166.02
  L 206.43 168.85
  A 0.55 0.55 0.0 0 0 207.23 168.25
  L 206.12 162.47
  A 0.55 0.55 0.0 0 1 206.27 161.97
  L 210.80 157.58
  A 0.55 0.55 0.0 0 0 210.50 156.64
  L 204.29 155.73
  A 0.55 0.55 0.0 0 1 203.87 155.42
  L 201.32 149.96
  A 0.55 0.55 0.0 0 0 200.33 149.95
  L 197.61 155.37"
/>
<path stroke="#818181" vector-effect="non-scaling-stroke" d="
  M 89.96 107.64
  L 89.96 102.66
  A 0.66 0.66 0.0 0 0 89.29 102.00
  L 80.58 102.02
  A 3.08 3.05 89.9 0 0 77.54 105.10
  L 77.54 105.24
  A 3.08 3.05 89.9 0 0 80.60 108.32
  L 89.31 108.30
  A 0.66 0.66 0.0 0 0 89.96 107.64"
/>
<path stroke="#818181" vector-effect="non-scaling-stroke" d="
  M 269.25 107.88
  L 269.25 102.42
  A 0.42 0.42 0.0 0 0 268.82 102.00
  L 259.94 102.02
  A 3.18 2.98 -0.1 0 0 256.77 105.00
  L 256.77 105.34
  A 3.18 2.98 -0.1 0 0 259.96 108.32
  L 268.84 108.30
  A 0.42 0.42 0.0 0 0 269.25 107.88"
/>
<path stroke="#818181" vector-effect="non-scaling-stroke" d="
  M 360.10 107.71
  L 360.10 102.59
  A 0.61 0.61 0.0 0 0 359.48 101.98
  L 350.64 102.00
  A 2.93 2.78 -0.1 0 0 347.72 104.78
  L 347.72 105.56
  A 2.93 2.78 -0.1 0 0 350.66 108.34
  L 359.50 108.32
  A 0.61 0.61 0.0 0 0 360.10 107.71"
/>
<path stroke="#818181" vector-effect="non-scaling-stroke" d="
  M 169.3802 137.0300
  A 5.68 4.52 90.2 0 0 173.9200 131.3658
  A 5.68 4.52 90.2 0 0 169.4198 125.6700
  A 5.68 4.52 90.2 0 0 164.8800 131.3342
  A 5.68 4.52 90.2 0 0 169.3802 137.0300"
/>
<path stroke="#818181" vector-effect="non-scaling-stroke" d="
  M 194.23 131.89
  A 0.51 0.51 0.0 0 0 194.72 132.55
  L 197.48 132.54
  A 0.51 0.51 0.0 0 0 197.96 131.88
  L 196.57 127.44
  A 0.51 0.51 0.0 0 0 195.59 127.44
  L 194.23 131.89"
/>
<path stroke="#818181" vector-effect="non-scaling-stroke" d="
  M 240.94 131.97
  A 0.41 0.41 0.0 0 0 241.33 132.51
  L 244.54 132.51
  A 0.41 0.41 0.0 0 0 244.92 131.96
  L 243.31 127.28
  A 0.41 0.41 0.0 0 0 242.54 127.29
  L 240.94 131.97"
/>
<path stroke="#818181" vector-effect="non-scaling-stroke" d="
  M 343.47 132.03
  A 0.41 0.41 0.0 0 0 343.87 132.57
  L 346.98 132.53
  A 0.41 0.41 0.0 0 0 347.36 131.99
  L 345.76 127.40
  A 0.41 0.41 0.0 0 0 344.98 127.41
  L 343.47 132.03"
/>
<path stroke="#818181" vector-effect="non-scaling-stroke" d="
  M 36.49 126.68
  L 36.53 130.60
  A 0.88 0.88 0.0 0 0 37.42 131.47
  L 37.81 131.47
  A 3.97 2.72 -0.7 0 0 41.75 128.70
  L 41.75 128.46
  A 3.97 2.72 -0.7 0 0 37.75 125.79
  L 37.36 125.79
  A 0.88 0.88 0.0 0 0 36.49 126.68"
/>
<path stroke="#818181" vector-effect="non-scaling-stroke" d="
  M 47.44 126.82
  L 47.48 129.92
  A 1.04 1.04 0.0 0 0 48.54 130.94
  L 49.04 130.94
  A 3.52 2.39 -0.9 0 0 52.52 128.49
  L 52.52 128.09
  A 3.52 2.39 -0.9 0 0 48.96 125.76
  L 48.46 125.76
  A 1.04 1.04 0.0 0 0 47.44 126.82"
/>
<path stroke="#818181" vector-effect="non-scaling-stroke" d="
  M 123.57 126.60
  L 123.73 130.80
  A 0.69 0.69 0.0 0 0 124.44 131.47
  L 125.33 131.43
  A 3.50 2.55 -2.1 0 0 128.74 128.76
  L 128.72 128.28
  A 3.50 2.55 -2.1 0 0 125.13 125.86
  L 124.24 125.89
  A 0.69 0.69 0.0 0 0 123.57 126.60"
/>
<path stroke="#818181" vector-effect="non-scaling-stroke" d="
  M 144.52 126.80
  L 144.52 129.82
  A 1.05 1.05 0.0 0 0 145.57 130.87
  L 146.24 130.87
  A 3.48 2.38 -0.1 0 0 149.72 128.49
  L 149.72 128.13
  A 3.48 2.38 -0.1 0 0 146.24 125.75
  L 145.57 125.75
  A 1.05 1.05 0.0 0 0 144.52 126.80"
/>
<path stroke="#818181" vector-effect="non-scaling-stroke" d="
  M 228.77 126.93
  L 228.79 129.73
  A 1.16 1.16 0.0 0 0 229.95 130.89
  L 230.79 130.88
  A 3.22 2.43 -0.3 0 0 234.00 128.44
  L 234.00 128.18
  A 3.22 2.43 -0.3 0 0 230.77 125.76
  L 229.93 125.77
  A 1.16 1.16 0.0 0 0 228.77 126.93"
/>
</g>
<path fill="#ffffff" d="
  M 0.00 0.00
  L 400.00 0.00
  L 400.00 177.00
  L 0.00 177.00
  L 0.00 0.00
  Z
  M 238.68 34.52
  Q 236.66 34.38 238.55 35.11
  C 246.59 38.20 260.88 38.56 263.94 27.98
  C 266.03 20.78 262.75 12.77 257.48 7.60
  A 0.31 0.31 0.0 0 0 256.99 7.98
  C 260.32 13.93 263.78 23.56 258.88 29.42
  C 254.62 34.50 245.10 34.95 238.68 34.52
  Z
  M 237.69 15.00
  A 7.00 7.00 0.0 0 0 230.69 8.00
  A 7.00 7.00 0.0 0 0 223.69 15.00
  A 7.00 7.00 0.0 0 0 230.69 22.00
  A 7.00 7.00 0.0 0 0 237.69 15.00
  Z
  M 217.22 62.38
  Q 210.49 65.72 203.23 66.35
  C 189.56 67.53 183.95 44.64 180.89 35.22
  A 0.30 0.30 0.0 0 0 180.30 35.33
  Q 180.70 44.12 182.65 52.94
  Q 184.47 61.20 186.72 64.05
  Q 198.51 78.98 216.85 69.28
  C 215.97 77.77 211.57 84.14 206.51 91.20
  C 203.17 95.85 201.38 99.26 200.72 104.42
  A 0.18 0.18 0.0 0 0 201.07 104.50
  Q 203.88 95.94 210.31 90.36
  Q 215.89 85.53 216.23 85.15
  Q 223.75 76.82 226.26 65.37
  Q 240.34 59.83 255.51 54.79
  Q 256.40 54.49 256.28 53.89
  A 0.56 0.56 0.0 0 0 255.71 53.45
  C 245.92 53.86 234.62 54.89 225.67 58.92
  Q 226.08 48.82 229.91 39.54
  C 232.60 33.01 226.96 26.83 221.95 23.63
  Q 218.46 21.41 212.08 20.33
  C 202.36 18.69 192.45 17.27 182.56 17.87
  A 0.42 0.42 0.0 0 0 182.52 18.70
  C 193.52 20.20 204.67 21.42 213.35 29.13
  C 218.67 33.85 218.23 39.55 216.77 46.06
  C 215.57 51.37 216.67 57.02 217.22 62.38
  Z
  M 129.18 102.54
  Q 133.47 107.15 137.39 112.08
  C 138.84 113.90 143.52 113.27 145.62 113.27
  A 0.39 0.39 0.0 0 0 145.91 112.62
  L 135.25 100.73
  Q 134.91 100.35 135.25 99.97
  L 145.66 88.39
  A 0.55 0.55 0.0 0 0 145.24 87.47
  L 139.07 87.54
  Q 138.47 87.54 138.08 87.99
  L 129.19 98.22
  A 0.37 0.36 65.5 0 1 128.55 97.98
  L 128.59 79.49
  Q 128.59 78.89 127.99 78.89
  L 123.17 78.90
  Q 122.50 78.90 122.50 79.58
  L 122.50 112.75
  Q 122.50 113.24 123.00 113.24
  L 127.94 113.25
  A 0.68 0.68 0.0 0 0 128.62 112.56
  L 128.57 102.78
  A 0.35 0.35 0.0 0 1 129.18 102.54
  Z
  M 285.13 79.41
  A 0.47 0.47 0.0 0 0 284.66 78.94
  L 279.94 78.94
  A 0.47 0.47 0.0 0 0 279.47 79.41
  L 279.47 112.77
  A 0.47 0.47 0.0 0 0 279.94 113.24
  L 284.66 113.24
  A 0.47 0.47 0.0 0 0 285.13 112.77
  L 285.13 79.41
  Z
  M 229.91 113.25
  A 0.38 0.38 0.0 0 0 230.29 112.87
  L 230.23 100.58
  A 0.38 0.38 0.0 0 1 230.90 100.33
  L 242.04 113.12
  A 0.38 0.38 0.0 0 0 242.32 113.25
  L 249.30 113.25
  A 0.38 0.38 0.0 0 0 249.58 112.62
  L 236.88 98.47
  A 0.38 0.38 0.0 0 1 236.88 97.97
  L 249.61 83.76
  A 0.38 0.38 0.0 0 0 249.32 83.13
  L 242.33 83.22
  A 0.38 0.38 0.0 0 0 242.05 83.35
  L 230.89 96.08
  A 0.38 0.38 0.0 0 1 230.23 95.83
  L 230.31 83.60
  A 0.38 0.38 0.0 0 0 229.93 83.22
  L 224.65 83.17
  A 0.38 0.38 0.0 0 0 224.27 83.55
  L 224.25 112.85
  A 0.38 0.38 0.0 0 0 224.63 113.23
  L 229.91 113.25
  Z
  M 61.67 93.95
  A 0.31 0.31 0.0 0 1 62.28 94.06
  L 62.23 112.94
  A 0.31 0.31 0.0 0 0 62.54 113.25
  L 67.92 113.25
  A 0.31 0.31 0.0 0 0 68.23 112.94
  L 68.22 83.50
  A 0.31 0.31 0.0 0 0 67.91 83.19
  L 59.64 83.24
  A 0.31 0.31 0.0 0 0 59.35 83.44
  L 51.72 104.50
  A 0.31 0.31 0.0 0 1 51.14 104.50
  L 43.56 83.38
  A 0.31 0.31 0.0 0 0 43.27 83.17
  L 35.07 83.22
  A 0.31 0.31 0.0 0 0 34.76 83.53
  L 34.76 112.93
  A 0.31 0.31 0.0 0 0 35.07 113.24
  L 40.46 113.25
  A 0.31 0.31 0.0 0 0 40.77 112.94
  L 40.76 93.97
  A 0.31 0.31 0.0 0 1 41.36 93.86
  L 48.12 113.05
  A 0.31 0.31 0.0 0 0 48.41 113.26
  L 54.53 113.27
  A 0.31 0.31 0.0 0 0 54.82 113.06
  L 61.67 93.95
  Z
  M 89.41 97.08
  C 85.60 97.28 79.97 96.51 76.46 97.55
  C 69.89 99.49 70.45 112.73 77.74 113.16
  Q 82.66 113.46 94.97 113.17
  Q 95.48 113.16 95.48 112.65
  Q 95.54 105.77 95.50 98.85
  Q 95.47 93.82 94.01 91.56
  C 90.34 85.91 80.03 87.44 74.09 87.52
  Q 73.59 87.53 73.59 88.03
  L 73.60 91.95
  A 0.58 0.58 0.0 0 0 74.20 92.53
  C 79.69 92.34 88.94 90.95 89.88 96.49
  Q 89.98 97.05 89.41 97.08
  Z
  M 113.52 93.03
  L 113.43 97.32
  A 0.61 0.61 0.0 0 0 114.07 97.95
  L 118.61 97.76
  Q 119.20 97.74 119.19 97.14
  L 119.11 88.21
  Q 119.11 87.80 118.70 87.76
  Q 110.07 86.86 106.83 87.80
  C 99.23 90.00 99.77 94.99 99.74 102.45
  Q 99.71 107.58 99.77 112.73
  Q 99.78 113.24 100.29 113.25
  L 104.81 113.25
  Q 105.38 113.25 105.39 112.68
  Q 105.45 104.71 105.57 96.75
  C 105.63 92.91 109.79 92.08 112.93 92.38
  Q 113.53 92.43 113.52 93.03
  Z
  M 165.00 108.14
  C 160.50 108.69 154.01 108.99 154.02 103.24
  Q 154.04 95.72 154.05 88.10
  Q 154.05 87.51 153.46 87.51
  L 149.00 87.50
  Q 148.42 87.50 148.41 88.08
  C 148.32 93.52 147.96 101.85 148.46 105.36
  C 149.87 115.25 162.20 113.39 170.75 113.18
  Q 171.18 113.17 171.18 112.74
  L 171.14 87.95
  Q 171.14 87.50 170.70 87.50
  L 166.12 87.51
  Q 165.49 87.51 165.49 88.13
  L 165.51 107.56
  Q 165.51 108.07 165.00 108.14
  Z
  M 181.57 97.04
  A 2.49 2.47 31.6 0 1 180.88 94.19
  C 181.41 92.95 182.55 92.49 183.92 92.46
  Q 190.49 92.33 197.15 92.50
  Q 197.74 92.51 197.74 91.93
  L 197.75 88.21
  Q 197.75 87.54 197.07 87.53
  Q 190.60 87.45 184.14 87.53
  C 178.78 87.59 175.91 88.83 175.60 94.50
  C 174.82 108.52 191.06 99.42 193.04 104.49
  C 194.14 107.29 191.61 108.29 189.26 108.30
  Q 183.15 108.32 176.96 108.30
  Q 176.30 108.30 176.30 108.96
  L 176.29 112.56
  Q 176.29 113.20 176.93 113.21
  Q 183.98 113.30 190.98 113.35
  C 198.83 113.41 201.08 103.30 195.83 99.36
  C 191.72 96.27 184.53 99.54 181.57 97.04
  Z
  M 268.71 97.08
  C 264.64 97.28 258.17 96.56 255.20 97.86
  C 250.07 100.12 249.77 108.84 254.13 111.93
  Q 255.97 113.24 260.61 113.25
  Q 267.53 113.26 274.39 113.24
  A 0.47 0.47 0.0 0 0 274.86 112.77
  Q 274.76 105.14 274.79 97.49
  C 274.84 85.50 262.85 87.28 253.42 87.60
  Q 252.86 87.62 252.88 88.18
  L 252.97 92.00
  A 0.54 0.54 0.0 0 0 253.52 92.52
  C 259.18 92.34 268.17 90.93 269.16 96.51
  Q 269.26 97.06 268.71 97.08
  Z
  M 306.34 108.06
  C 301.54 108.82 295.37 108.95 295.36 102.99
  Q 295.36 95.59 295.42 88.12
  Q 295.43 87.51 294.81 87.51
  L 290.28 87.50
  Q 289.68 87.50 289.68 88.11
  Q 289.70 95.12 289.73 102.16
  C 289.75 108.53 292.05 112.83 298.77 113.17
  Q 303.59 113.42 312.04 113.19
  Q 312.49 113.18 312.49 112.72
  L 312.50 88.13
  Q 312.50 87.51 311.88 87.51
  L 307.25 87.50
  Q 306.76 87.50 306.76 88.00
  L 306.80 107.53
  Q 306.80 107.99 306.34 108.06
  Z
  M 331.04 92.96
  Q 325.00 99.87 318.55 106.42
  C 316.63 108.37 316.47 110.25 316.93 112.77
  Q 317.02 113.25 317.51 113.25
  L 338.38 113.25
  Q 339.00 113.25 339.00 112.62
  L 339.00 108.92
  Q 339.00 108.31 338.39 108.31
  L 324.77 108.30
  A 0.33 0.32 -67.9 0 1 324.54 107.75
  Q 331.26 100.76 337.63 93.78
  C 339.30 91.96 339.24 90.24 338.98 87.95
  Q 338.92 87.50 338.47 87.50
  L 317.28 87.51
  Q 316.81 87.51 316.81 87.97
  L 316.83 91.76
  A 0.69 0.69 0.0 0 0 317.52 92.45
  L 330.78 92.40
  Q 331.53 92.39 331.04 92.96
  Z
  M 359.62 97.07
  C 353.28 97.46 342.33 94.57 341.95 104.73
  Q 341.64 113.16 350.00 113.25
  Q 357.49 113.32 365.14 113.22
  Q 365.68 113.21 365.68 112.67
  Q 365.70 106.59 365.71 100.51
  Q 365.71 94.69 364.82 92.57
  C 362.06 86.06 351.72 87.36 344.35 87.59
  Q 343.75 87.61 343.75 88.21
  L 343.75 91.80
  Q 343.75 92.50 344.45 92.49
  C 350.19 92.39 358.74 90.90 360.05 96.49
  Q 360.18 97.03 359.62 97.07
  Z
  M 84.9712 124.9315
  A 0.55 0.55 0.0 0 0 84.4221 124.3806
  L 83.8021 124.3795
  A 0.55 0.55 0.0 0 0 83.2512 124.9285
  L 83.2288 137.7485
  A 0.55 0.55 0.0 0 0 83.7779 138.2994
  L 84.3979 138.3005
  A 0.55 0.55 0.0 0 0 84.9488 137.7515
  L 84.9712 124.9315
  Z
  M 96.28 134.26
  C 95.54 138.23 89.92 137.88 89.87 133.24
  Q 89.81 127.88 89.93 125.49
  Q 89.96 124.86 89.68 124.59
  Q 89.28 124.20 88.61 124.42
  Q 88.14 124.57 88.12 125.05
  C 87.85 130.43 86.67 139.28 93.76 138.44
  C 99.46 137.77 98.56 129.05 98.00 124.76
  Q 97.94 124.25 97.42 124.28
  L 97.08 124.30
  A 0.68 0.68 0.0 0 0 96.44 125.01
  Q 96.69 132.04 96.28 134.26
  Z
  M 103.84 128.46
  L 106.89 137.69
  A 0.89 0.89 0.0 0 0 108.58 137.71
  L 112.02 127.95
  A 0.32 0.32 0.0 0 1 112.64 128.04
  L 113.09 137.58
  Q 113.13 138.28 113.83 138.26
  L 114.33 138.25
  Q 114.89 138.23 114.85 137.68
  L 114.12 125.42
  A 1.32 1.31 -36.9 0 0 111.57 125.06
  L 108.20 134.50
  A 0.38 0.38 0.0 0 1 107.49 134.49
  L 104.40 125.19
  A 1.34 1.34 0.0 0 0 101.79 125.52
  L 100.91 137.59
  Q 100.87 138.12 101.38 138.28
  Q 101.88 138.44 102.24 138.20
  Q 102.63 137.93 102.66 137.17
  Q 102.84 132.85 103.14 128.54
  A 0.36 0.36 0.0 0 1 103.84 128.46
  Z
  M 155.09 127.42
  Q 156.98 124.79 160.00 126.26
  A 0.51 0.51 0.0 0 0 160.69 126.00
  Q 161.11 125.03 160.32 124.72
  C 157.53 123.62 153.34 124.59 153.39 128.20
  C 153.43 130.69 157.10 131.93 158.98 132.86
  A 1.94 1.94 0.0 0 1 158.97 136.35
  Q 156.48 137.55 154.11 136.25
  A 0.51 0.51 0.0 0 0 153.35 136.75
  L 153.42 137.32
  Q 153.47 137.76 153.87 137.93
  C 157.31 139.37 163.73 137.47 160.95 132.63
  C 159.88 130.75 156.99 130.37 155.22 128.72
  A 0.99 0.98 39.7 0 1 155.09 127.42
  Z
  M 169.2315 138.5775
  A 7.20 6.34 91.5 0 0 175.7578 131.5460
  A 7.20 6.34 91.5 0 0 169.6085 124.1825
  A 7.20 6.34 91.5 0 0 163.0822 131.2140
  A 7.20 6.34 91.5 0 0 169.2315 138.5775
  Z
  M 180.02 127.86
  Q 183.30 132.70 186.20 137.78
  Q 186.39 138.11 186.68 138.25
  Q 187.09 138.45 187.36 138.43
  Q 188.23 138.39 188.24 137.52
  Q 188.28 131.59 188.30 125.44
  Q 188.30 124.86 188.08 124.60
  Q 187.76 124.21 187.07 124.35
  A 0.68 0.67 83.9 0 0 186.53 125.03
  L 186.73 134.27
  A 0.37 0.37 0.0 0 1 186.04 134.47
  L 180.09 124.68
  A 1.12 1.12 0.0 0 0 178.02 125.27
  L 178.02 137.66
  Q 178.02 138.31 178.66 138.28
  L 179.14 138.26
  Q 179.77 138.23 179.75 137.61
  L 179.51 128.02
  Q 179.48 127.06 180.02 127.86
  Z
  M 198.73 134.69
  L 199.94 137.80
  Q 200.11 138.26 200.60 138.27
  L 201.18 138.28
  Q 201.90 138.29 201.67 137.61
  Q 199.61 131.69 197.64 125.74
  C 197.29 124.67 196.64 124.09 195.53 124.51
  Q 195.01 124.70 194.83 125.22
  Q 192.79 131.12 190.72 136.98
  Q 190.47 137.71 190.84 138.21
  A 0.75 0.74 -52.4 0 0 192.13 138.04
  L 193.63 134.32
  A 0.78 0.76 11.7 0 1 194.38 133.84
  L 197.76 133.99
  Q 198.47 134.02 198.73 134.69
  Z
  M 205.86 136.77
  A 0.32 0.32 0.0 0 1 205.54 136.45
  L 205.53 124.77
  A 0.32 0.32 0.0 0 0 205.24 124.46
  L 204.17 124.37
  A 0.32 0.32 0.0 0 0 203.82 124.69
  L 203.86 137.90
  A 0.32 0.32 0.0 0 0 204.18 138.22
  L 211.46 138.30
  A 0.32 0.32 0.0 0 0 211.78 137.92
  L 211.62 136.98
  A 0.32 0.32 0.0 0 0 211.30 136.71
  L 205.86 136.77
  Z
  M 245.45 134.35
  L 246.95 138.19
  A 0.81 0.81 0.0 0 0 248.47 137.64
  Q 246.42 131.42 244.01 125.17
  Q 243.76 124.53 243.24 124.32
  A 0.99 0.98 21.6 0 0 241.94 124.88
  Q 239.65 130.84 237.49 137.05
  Q 237.27 137.68 237.68 138.11
  A 0.89 0.88 -57.6 0 0 239.15 137.78
  L 240.33 134.37
  A 0.71 0.71 0.0 0 1 241.01 133.90
  L 244.85 133.94
  A 0.67 0.65 -10.0 0 1 245.45 134.35
  Z
  M 263.82 134.69
  L 257.90 124.89
  A 1.18 1.18 0.0 0 0 255.71 125.50
  L 255.68 137.73
  A 0.56 0.55 0.5 0 0 256.23 138.28
  L 256.76 138.28
  Q 257.31 138.28 257.30 137.74
  L 257.16 128.07
  A 0.36 0.36 0.0 0 1 257.83 127.88
  L 263.92 137.89
  A 1.08 1.08 0.0 0 0 265.93 137.34
  L 266.01 125.14
  Q 266.01 124.51 265.39 124.41
  L 264.90 124.33
  A 0.58 0.58 0.0 0 0 264.23 124.92
  L 264.38 134.53
  A 0.30 0.30 0.0 0 1 263.82 134.69
  Z
  M 282.69 134.34
  A 0.36 0.35 28.8 0 1 282.03 134.53
  L 276.02 124.64
  A 1.09 1.09 0.0 0 0 274.00 125.19
  Q 273.91 131.04 273.91 137.35
  Q 273.91 137.87 274.13 138.09
  Q 274.45 138.43 275.02 138.24
  Q 275.54 138.05 275.54 137.49
  L 275.50 128.02
  A 0.34 0.34 0.0 0 1 276.13 127.85
  Q 279.05 132.99 282.45 137.84
  Q 282.77 138.29 283.30 138.35
  A 0.83 0.83 0.0 0 0 284.24 137.53
  L 284.28 125.08
  Q 284.28 124.39 283.59 124.37
  L 283.15 124.36
  Q 282.45 124.34 282.47 125.05
  L 282.69 134.34
  Z
  M 348.03 134.38
  L 349.17 137.75
  Q 349.34 138.26 349.88 138.30
  L 350.42 138.34
  A 0.48 0.48 0.0 0 0 350.91 137.72
  Q 348.99 131.57 346.88 125.48
  Q 346.43 124.19 345.11 124.40
  A 1.32 1.30 4.4 0 0 344.08 125.27
  L 339.95 137.63
  Q 339.76 138.20 340.36 138.22
  L 341.07 138.24
  Q 341.44 138.25 341.57 137.89
  L 342.86 134.42
  Q 343.03 133.95 343.53 133.95
  L 347.39 133.92
  Q 347.88 133.92 348.03 134.38
  Z
  M 355.43 127.93
  L 358.86 137.77
  A 0.84 0.84 0.0 0 0 360.45 137.78
  L 363.92 127.92
  A 0.31 0.31 0.0 0 1 364.52 128.01
  Q 364.78 132.79 365.02 137.75
  Q 365.06 138.52 365.90 138.41
  A 0.52 0.52 0.0 0 0 366.37 137.88
  L 366.10 125.28
  A 1.33 1.33 0.0 0 0 363.52 124.86
  L 360.04 134.67
  A 0.28 0.28 0.0 0 1 359.51 134.67
  L 356.21 125.12
  A 1.30 1.30 0.0 0 0 353.69 125.45
  L 352.79 137.62
  Q 352.74 138.25 353.37 138.26
  L 353.98 138.27
  Q 354.48 138.28 354.50 137.77
  L 354.98 128.00
  A 0.23 0.23 0.0 0 1 355.43 127.93
  Z
  M 37.09 132.81
  C 45.80 133.99 45.70 122.09 35.37 124.69
  Q 34.76 124.84 34.76 125.47
  L 34.78 137.60
  A 0.70 0.70 0.0 0 0 35.33 138.28
  L 35.81 138.39
  A 0.57 0.57 0.0 0 0 36.51 137.84
  L 36.54 133.29
  Q 36.54 132.73 37.09 132.81
  Z
  M 52.43 131.43
  Q 55.61 128.67 52.91 125.02
  A 0.79 0.78 72.8 0 0 52.33 124.71
  L 46.40 124.44
  A 0.62 0.62 0.0 0 0 45.75 125.06
  L 45.75 137.63
  Q 45.74 138.26 46.38 138.32
  L 46.79 138.36
  Q 47.50 138.42 47.50 137.71
  L 47.48 133.01
  Q 47.48 132.40 48.08 132.29
  C 51.94 131.59 52.02 135.70 52.95 138.11
  A 0.76 0.76 0.0 0 0 54.42 137.76
  Q 54.06 134.68 52.33 132.19
  Q 52.04 131.77 52.43 131.43
  Z
  M 58.50 129.82
  L 58.45 126.63
  A 0.64 0.64 0.0 0 1 59.12 125.98
  L 63.61 126.15
  A 0.58 0.58 0.0 0 0 64.21 125.62
  L 64.25 125.02
  Q 64.29 124.50 63.77 124.50
  L 57.48 124.50
  Q 56.71 124.51 56.71 125.27
  L 56.74 137.75
  A 0.52 0.52 0.0 0 0 57.25 138.27
  L 63.83 138.28
  A 0.60 0.59 -12.1 0 0 64.38 137.44
  L 64.23 137.10
  A 0.66 0.66 0.0 0 0 63.61 136.71
  L 59.10 136.76
  Q 58.43 136.77 58.44 136.10
  L 58.48 132.29
  A 0.67 0.67 0.0 0 1 59.25 131.64
  Q 61.25 131.95 63.28 131.77
  A 0.77 0.77 0.0 0 0 63.19 130.23
  L 59.07 130.36
  Q 58.50 130.38 58.50 129.82
  Z
  M 78.17 127.78
  L 78.62 137.67
  A 0.75 0.74 -0.4 0 0 79.35 138.38
  L 79.77 138.39
  A 0.55 0.55 0.0 0 0 80.33 137.81
  L 79.68 125.49
  A 1.34 1.33 53.4 0 0 77.09 125.10
  L 73.70 134.55
  Q 73.38 135.43 73.08 134.54
  L 69.84 125.20
  A 1.32 1.32 0.0 0 0 67.28 125.54
  L 66.47 137.55
  Q 66.43 138.19 67.05 138.27
  L 67.48 138.33
  Q 68.10 138.41 68.14 137.78
  L 68.65 127.77
  A 0.22 0.22 0.0 0 1 69.08 127.71
  L 72.38 137.59
  A 0.93 0.93 0.0 0 0 74.13 137.61
  L 77.70 127.71
  A 0.24 0.24 0.0 0 1 78.17 127.78
  Z
  M 124.22 132.92
  C 133.18 133.28 132.65 122.50 122.40 124.71
  Q 121.97 124.80 121.97 125.25
  L 121.98 137.77
  A 0.53 0.53 0.0 0 0 122.53 138.30
  L 123.13 138.27
  A 0.63 0.63 0.0 0 0 123.73 137.62
  L 123.59 133.55
  A 0.61 0.60 -0.4 0 1 124.22 132.92
  Z
  M 135.21 125.95
  L 139.54 126.19
  Q 140.08 126.22 140.26 125.71
  L 140.37 125.38
  A 0.66 0.65 -80.4 0 0 139.76 124.51
  L 133.40 124.52
  A 0.62 0.62 0.0 0 0 132.78 125.14
  L 132.76 137.50
  Q 132.76 138.25 133.50 138.25
  L 140.02 138.28
  Q 140.57 138.28 140.53 137.73
  L 140.51 137.33
  A 0.66 0.66 0.0 0 0 139.84 136.71
  L 135.13 136.76
  A 0.63 0.63 0.0 0 1 134.49 136.13
  L 134.53 132.34
  A 0.61 0.61 0.0 0 1 135.16 131.74
  L 139.46 131.81
  A 0.59 0.59 0.0 0 0 140.03 131.02
  Q 139.67 129.99 138.48 130.17
  Q 136.87 130.43 135.19 130.36
  Q 134.51 130.34 134.52 129.65
  L 134.57 126.54
  Q 134.58 125.92 135.21 125.95
  Z
  M 145.25 132.18
  L 147.68 132.48
  Q 148.33 132.56 148.52 133.18
  L 149.92 137.76
  Q 150.07 138.25 150.59 138.26
  L 151.02 138.26
  A 0.62 0.62 0.0 0 0 151.62 137.44
  L 149.72 131.92
  Q 149.56 131.44 149.93 131.11
  Q 152.05 129.20 150.87 126.16
  A 1.21 1.17 5.1 0 0 150.36 125.57
  Q 147.09 123.68 143.30 124.73
  Q 142.88 124.84 142.88 125.28
  L 142.92 137.61
  Q 142.92 138.31 143.61 138.30
  L 144.09 138.30
  Q 144.59 138.29 144.59 137.79
  L 144.59 132.76
  A 0.58 0.58 0.0 0 1 145.25 132.18
  Z
  M 219.72 126.61
  L 219.69 137.54
  A 0.90 0.90 0.0 0 0 221.40 137.93
  Q 221.72 137.25 221.67 136.23
  Q 221.39 131.42 221.47 126.52
  Q 221.48 125.94 222.06 125.98
  L 224.87 126.14
  Q 225.42 126.17 225.49 125.63
  L 225.57 125.06
  Q 225.65 124.48 225.06 124.48
  L 215.97 124.53
  Q 215.37 124.53 215.36 125.13
  L 215.35 125.55
  Q 215.34 126.17 215.96 126.14
  L 219.11 126.02
  Q 219.72 126.00 219.72 126.61
  Z
  M 229.42 132.31
  C 233.46 131.72 233.43 135.01 234.10 137.84
  A 0.90 0.90 0.0 0 0 235.86 137.50
  Q 235.41 134.53 233.79 132.13
  Q 233.50 131.70 233.89 131.36
  C 236.97 128.69 235.88 125.07 231.98 124.48
  Q 229.95 124.17 227.81 124.67
  A 0.82 0.81 -6.8 0 0 227.18 125.46
  L 227.18 137.83
  Q 227.18 138.24 227.58 138.25
  L 228.35 138.26
  Q 228.97 138.27 228.95 137.65
  L 228.81 133.03
  Q 228.79 132.40 229.42 132.31
  Z
  M 252.48 125.13
  A 0.70 0.70 0.0 0 0 251.78 124.43
  L 251.46 124.43
  A 0.70 0.70 0.0 0 0 250.76 125.13
  L 250.76 137.65
  A 0.70 0.70 0.0 0 0 251.46 138.35
  L 251.78 138.35
  A 0.70 0.70 0.0 0 0 252.48 137.65
  L 252.48 125.13
  Z
  M 270.7812 124.9215
  A 0.44 0.44 0.0 0 0 270.3420 124.4807
  L 269.5420 124.4793
  A 0.44 0.44 0.0 0 0 269.1012 124.9185
  L 269.0788 137.7785
  A 0.44 0.44 0.0 0 0 269.5180 138.2193
  L 270.3180 138.2207
  A 0.44 0.44 0.0 0 0 270.7588 137.7815
  L 270.7812 124.9215
  Z
  M 296.33 133.28
  L 296.32 135.76
  Q 296.32 136.25 295.86 136.41
  C 286.03 139.97 285.47 122.85 296.56 126.35
  A 0.69 0.68 11.4 0 0 297.46 125.76
  Q 297.55 124.83 296.80 124.67
  C 283.68 121.82 282.41 140.46 296.56 138.23
  Q 297.98 138.01 297.95 136.57
  L 297.84 131.51
  Q 297.83 130.94 297.26 130.94
  L 293.83 130.93
  A 0.64 0.63 50.5 0 0 293.71 132.19
  L 295.76 132.59
  Q 296.33 132.70 296.33 133.28
  Z
  M 325.39 126.25
  Q 326.95 126.04 328.50 126.03
  Q 329.45 126.02 329.19 125.02
  Q 329.05 124.51 328.52 124.51
  L 319.37 124.53
  A 0.55 0.55 0.0 0 0 318.83 125.15
  L 318.89 125.52
  Q 318.96 126.06 319.51 126.07
  L 322.64 126.11
  Q 323.17 126.11 323.18 126.64
  L 323.26 137.76
  Q 323.26 138.27 323.77 138.31
  L 324.21 138.34
  Q 324.86 138.39 324.87 137.73
  L 324.93 126.77
  A 0.53 0.52 -3.7 0 1 325.39 126.25
  Z
  M 332.40 129.89
  L 332.40 126.76
  A 0.71 0.70 -89.6 0 1 333.11 126.05
  Q 335.13 126.05 337.12 126.13
  Q 337.61 126.15 337.86 125.92
  Q 338.17 125.64 338.20 125.16
  Q 338.23 124.50 337.57 124.50
  L 331.46 124.51
  Q 330.68 124.51 330.68 125.29
  L 330.59 137.67
  A 0.58 0.58 0.0 0 0 331.17 138.25
  L 337.97 138.30
  Q 338.44 138.30 338.44 137.83
  Q 338.45 136.66 337.25 136.71
  Q 334.67 136.81 333.05 136.70
  Q 332.35 136.65 332.37 135.95
  L 332.48 132.36
  Q 332.50 131.72 333.14 131.73
  L 337.20 131.81
  Q 337.72 131.82 337.81 131.31
  L 337.91 130.80
  Q 338.02 130.20 337.41 130.22
  L 332.90 130.37
  Q 332.40 130.39 332.40 129.89
  Z
  M 310.65 131.99
  A 0.41 0.41 0.0 0 1 310.28 131.63
  L 309.89 127.63
  A 0.41 0.41 0.0 0 0 309.07 127.63
  L 308.66 131.62
  A 0.41 0.41 0.0 0 1 308.30 131.99
  L 304.30 132.38
  A 0.41 0.41 0.0 0 0 304.30 133.20
  L 308.29 133.61
  A 0.41 0.41 0.0 0 1 308.66 133.97
  L 309.05 137.97
  A 0.41 0.41 0.0 0 0 309.87 137.97
  L 310.28 133.98
  A 0.41 0.41 0.0 0 1 310.64 133.61
  L 314.64 133.22
  A 0.41 0.41 0.0 0 0 314.64 132.40
  L 310.65 131.99
  Z
  M 132.29 161.76
  A 0.56 0.56 0.0 0 1 132.46 162.28
  L 131.30 168.29
  A 0.56 0.56 0.0 0 0 132.12 168.89
  L 137.55 165.98
  A 0.56 0.56 0.0 0 1 138.07 165.98
  L 143.40 168.81
  A 0.56 0.56 0.0 0 0 144.22 168.22
  L 143.12 162.29
  A 0.56 0.56 0.0 0 1 143.29 161.77
  L 147.80 157.63
  A 0.56 0.56 0.0 0 0 147.51 156.67
  L 141.22 155.72
  A 0.56 0.56 0.0 0 1 140.79 155.41
  L 138.30 150.03
  A 0.56 0.56 0.0 0 0 137.30 150.01
  L 134.46 155.54
  A 0.56 0.56 0.0 0 1 134.04 155.84
  L 128.07 156.62
  A 0.56 0.56 0.0 0 0 127.76 157.58
  L 132.29 161.76
  Z
  M 166.40 155.44
  A 0.58 0.58 0.0 0 1 165.97 155.75
  L 159.99 156.66
  A 0.58 0.58 0.0 0 0 159.68 157.66
  L 164.15 161.84
  A 0.58 0.58 0.0 0 1 164.32 162.38
  L 163.02 168.51
  A 0.58 0.58 0.0 0 0 163.89 169.12
  L 169.02 165.98
  A 0.58 0.58 0.0 0 1 169.58 165.95
  L 175.13 168.72
  A 0.58 0.58 0.0 0 0 175.96 168.10
  L 174.94 162.15
  A 0.58 0.58 0.0 0 1 175.13 161.62
  L 179.68 157.72
  A 0.58 0.58 0.0 0 0 179.39 156.70
  L 173.17 155.78
  A 0.58 0.58 0.0 0 1 172.73 155.45
  L 170.19 150.04
  A 0.58 0.58 0.0 0 0 169.14 150.02
  L 166.40 155.44
  Z
  M 228.26 155.79
  L 222.40 156.63
  A 0.65 0.64 -28.3 0 0 222.06 157.75
  L 226.24 161.48
  A 1.09 1.07 27.1 0 1 226.58 162.51
  L 225.46 168.02
  A 0.71 0.71 0.0 0 0 226.46 168.80
  C 228.33 167.89 231.62 165.28 233.59 166.63
  Q 235.81 168.15 237.86 168.82
  Q 238.56 169.05 238.42 168.33
  L 237.35 162.71
  Q 237.24 162.12 237.68 161.71
  L 242.07 157.57
  A 0.55 0.54 -62.7 0 0 241.77 156.63
  L 236.49 155.94
  A 2.48 2.47 -8.1 0 1 234.54 154.48
  L 232.59 150.11
  A 0.72 0.72 0.0 0 0 231.27 150.11
  L 228.97 155.26
  A 0.92 0.92 0.0 0 1 228.26 155.79
  Z
  M 259.85 155.41
  A 0.56 0.56 0.0 0 1 259.43 155.73
  L 253.39 156.68
  A 0.56 0.56 0.0 0 0 253.09 157.64
  L 257.52 161.83
  A 0.56 0.56 0.0 0 1 257.69 162.35
  L 256.48 168.23
  A 0.56 0.56 0.0 0 0 257.29 168.84
  L 262.75 166.06
  A 0.56 0.56 0.0 0 1 263.27 166.06
  L 268.69 168.92
  A 0.56 0.56 0.0 0 0 269.50 168.32
  L 268.38 162.39
  A 0.56 0.56 0.0 0 1 268.54 161.89
  L 272.83 157.60
  A 0.56 0.56 0.0 0 0 272.52 156.65
  L 266.43 155.71
  A 0.56 0.56 0.0 0 1 266.00 155.39
  L 263.49 149.88
  A 0.56 0.56 0.0 0 0 262.47 149.87
  L 259.85 155.41
  Z
  M 197.61 155.37
  A 0.55 0.55 0.0 0 1 197.22 155.66
  L 191.10 156.79
  A 0.55 0.55 0.0 0 0 190.83 157.74
  L 195.34 161.87
  A 0.55 0.55 0.0 0 1 195.50 162.39
  L 194.19 168.38
  A 0.55 0.55 0.0 0 0 194.99 168.98
  L 200.48 166.03
  A 0.55 0.55 0.0 0 1 201.00 166.02
  L 206.43 168.85
  A 0.55 0.55 0.0 0 0 207.23 168.25
  L 206.12 162.47
  A 0.55 0.55 0.0 0 1 206.27 161.97
  L 210.80 157.58
  A 0.55 0.55 0.0 0 0 210.50 156.64
  L 204.29 155.73
  A 0.55 0.55 0.0 0 1 203.87 155.42
  L 201.32 149.96
  A 0.55 0.55 0.0 0 0 200.33 149.95
  L 197.61 155.37
  Z"
/>
<path fill="#dad15c" d="
  M 238.68 34.52
  C 245.10 34.95 254.62 34.50 258.88 29.42
  C 263.78 23.56 260.32 13.93 256.99 7.98
  A 0.31 0.31 0.0 0 1 257.48 7.60
  C 262.75 12.77 266.03 20.78 263.94 27.98
  C 260.88 38.56 246.59 38.20 238.55 35.11
  Q 236.66 34.38 238.68 34.52
  Z"
/>
<circle fill="#030203" cx="230.69" cy="15.00" r="7.00"/>
<path fill="#030203" d="
  M 225.67 58.92
  L 217.22 62.38
  C 216.67 57.02 215.57 51.37 216.77 46.06
  C 218.23 39.55 218.67 33.85 213.35 29.13
  C 204.67 21.42 193.52 20.20 182.52 18.70
  A 0.42 0.42 0.0 0 1 182.56 17.87
  C 192.45 17.27 202.36 18.69 212.08 20.33
  Q 218.46 21.41 221.95 23.63
  C 226.96 26.83 232.60 33.01 229.91 39.54
  Q 226.08 48.82 225.67 58.92
  Z"
/>
<path fill="#dad15c" d="
  M 217.22 62.38
  L 225.67 58.92
  C 234.62 54.89 245.92 53.86 255.71 53.45
  A 0.56 0.56 0.0 0 1 256.28 53.89
  Q 256.40 54.49 255.51 54.79
  Q 240.34 59.83 226.26 65.37
  L 216.85 69.28
  Q 198.51 78.98 186.72 64.05
  Q 184.47 61.20 182.65 52.94
  Q 180.70 44.12 180.30 35.33
  A 0.30 0.30 0.0 0 1 180.89 35.22
  C 183.95 44.64 189.56 67.53 203.23 66.35
  Q 210.49 65.72 217.22 62.38
  Z"
/>
<path fill="#030203" d="
  M 226.26 65.37
  Q 223.75 76.82 216.23 85.15
  Q 215.89 85.53 210.31 90.36
  Q 203.88 95.94 201.07 104.50
  A 0.18 0.18 0.0 0 1 200.72 104.42
  C 201.38 99.26 203.17 95.85 206.51 91.20
  C 211.57 84.14 215.97 77.77 216.85 69.28
  L 226.26 65.37
  Z"
/>
<path fill="#030203" d="
  M 128.57 102.78
  L 128.62 112.56
  A 0.68 0.68 0.0 0 1 127.94 113.25
  L 123.00 113.24
  Q 122.50 113.24 122.50 112.75
  L 122.50 79.58
  Q 122.50 78.90 123.17 78.90
  L 127.99 78.89
  Q 128.59 78.89 128.59 79.49
  L 128.55 97.98
  A 0.37 0.36 65.5 0 0 129.19 98.22
  L 138.08 87.99
  Q 138.47 87.54 139.07 87.54
  L 145.24 87.47
  A 0.55 0.55 0.0 0 1 145.66 88.39
  L 135.25 99.97
  Q 134.91 100.35 135.25 100.73
  L 145.91 112.62
  A 0.39 0.39 0.0 0 1 145.62 113.27
  C 143.52 113.27 138.84 113.90 137.39 112.08
  Q 133.47 107.15 129.18 102.54
  A 0.35 0.35 0.0 0 0 128.57 102.78
  Z"
/>
<rect fill="#030203" x="279.47" y="78.94" width="5.66" height="34.30" rx="0.47"/>
<path fill="#030203" d="
  M 229.91 113.25
  L 224.63 113.23
  A 0.38 0.38 0.0 0 1 224.25 112.85
  L 224.27 83.55
  A 0.38 0.38 0.0 0 1 224.65 83.17
  L 229.93 83.22
  A 0.38 0.38 0.0 0 1 230.31 83.60
  L 230.23 95.83
  A 0.38 0.38 0.0 0 0 230.89 96.08
  L 242.05 83.35
  A 0.38 0.38 0.0 0 1 242.33 83.22
  L 249.32 83.13
  A 0.38 0.38 0.0 0 1 249.61 83.76
  L 236.88 97.97
  A 0.38 0.38 0.0 0 0 236.88 98.47
  L 249.58 112.62
  A 0.38 0.38 0.0 0 1 249.30 113.25
  L 242.32 113.25
  A 0.38 0.38 0.0 0 1 242.04 113.12
  L 230.90 100.33
  A 0.38 0.38 0.0 0 0 230.23 100.58
  L 230.29 112.87
  A 0.38 0.38 0.0 0 1 229.91 113.25
  Z"
/>
<path fill="#030203" d="
  M 61.67 93.95
  L 54.82 113.06
  A 0.31 0.31 0.0 0 1 54.53 113.27
  L 48.41 113.26
  A 0.31 0.31 0.0 0 1 48.12 113.05
  L 41.36 93.86
  A 0.31 0.31 0.0 0 0 40.76 93.97
  L 40.77 112.94
  A 0.31 0.31 0.0 0 1 40.46 113.25
  L 35.07 113.24
  A 0.31 0.31 0.0 0 1 34.76 112.93
  L 34.76 83.53
  A 0.31 0.31 0.0 0 1 35.07 83.22
  L 43.27 83.17
  A 0.31 0.31 0.0 0 1 43.56 83.38
  L 51.14 104.50
  A 0.31 0.31 0.0 0 0 51.72 104.50
  L 59.35 83.44
  A 0.31 0.31 0.0 0 1 59.64 83.24
  L 67.91 83.19
  A 0.31 0.31 0.0 0 1 68.22 83.50
  L 68.23 112.94
  A 0.31 0.31 0.0 0 1 67.92 113.25
  L 62.54 113.25
  A 0.31 0.31 0.0 0 1 62.23 112.94
  L 62.28 94.06
  A 0.31 0.31 0.0 0 0 61.67 93.95
  Z"
/>
<path fill="#030203" d="
  M 89.88 96.49
  C 88.94 90.95 79.69 92.34 74.20 92.53
  A 0.58 0.58 0.0 0 1 73.60 91.95
  L 73.59 88.03
  Q 73.59 87.53 74.09 87.52
  C 80.03 87.44 90.34 85.91 94.01 91.56
  Q 95.47 93.82 95.50 98.85
  Q 95.54 105.77 95.48 112.65
  Q 95.48 113.16 94.97 113.17
  Q 82.66 113.46 77.74 113.16
  C 70.45 112.73 69.89 99.49 76.46 97.55
  C 79.97 96.51 85.60 97.28 89.41 97.08
  Q 89.98 97.05 89.88 96.49
  Z
  M 89.96 107.64
  L 89.96 102.66
  A 0.66 0.66 0.0 0 0 89.29 102.00
  L 80.58 102.02
  A 3.08 3.05 89.9 0 0 77.54 105.10
  L 77.54 105.24
  A 3.08 3.05 89.9 0 0 80.60 108.32
  L 89.31 108.30
  A 0.66 0.66 0.0 0 0 89.96 107.64
  Z"
/>
<path fill="#030203" d="
  M 112.93 92.38
  C 109.79 92.08 105.63 92.91 105.57 96.75
  Q 105.45 104.71 105.39 112.68
  Q 105.38 113.25 104.81 113.25
  L 100.29 113.25
  Q 99.78 113.24 99.77 112.73
  Q 99.71 107.58 99.74 102.45
  C 99.77 94.99 99.23 90.00 106.83 87.80
  Q 110.07 86.86 118.70 87.76
  Q 119.11 87.80 119.11 88.21
  L 119.19 97.14
  Q 119.20 97.74 118.61 97.76
  L 114.07 97.95
  A 0.61 0.61 0.0 0 1 113.43 97.32
  L 113.52 93.03
  Q 113.53 92.43 112.93 92.38
  Z"
/>
<path fill="#030203" d="
  M 165.51 107.56
  L 165.49 88.13
  Q 165.49 87.51 166.12 87.51
  L 170.70 87.50
  Q 171.14 87.50 171.14 87.95
  L 171.18 112.74
  Q 171.18 113.17 170.75 113.18
  C 162.20 113.39 149.87 115.25 148.46 105.36
  C 147.96 101.85 148.32 93.52 148.41 88.08
  Q 148.42 87.50 149.00 87.50
  L 153.46 87.51
  Q 154.05 87.51 154.05 88.10
  Q 154.04 95.72 154.02 103.24
  C 154.01 108.99 160.50 108.69 165.00 108.14
  Q 165.51 108.07 165.51 107.56
  Z"
/>
<path fill="#030203" d="
  M 181.57 97.04
  C 184.53 99.54 191.72 96.27 195.83 99.36
  C 201.08 103.30 198.83 113.41 190.98 113.35
  Q 183.98 113.30 176.93 113.21
  Q 176.29 113.20 176.29 112.56
  L 176.30 108.96
  Q 176.30 108.30 176.96 108.30
  Q 183.15 108.32 189.26 108.30
  C 191.61 108.29 194.14 107.29 193.04 104.49
  C 191.06 99.42 174.82 108.52 175.60 94.50
  C 175.91 88.83 178.78 87.59 184.14 87.53
  Q 190.60 87.45 197.07 87.53
  Q 197.75 87.54 197.75 88.21
  L 197.74 91.93
  Q 197.74 92.51 197.15 92.50
  Q 190.49 92.33 183.92 92.46
  C 182.55 92.49 181.41 92.95 180.88 94.19
  A 2.49 2.47 31.6 0 0 181.57 97.04
  Z"
/>
<path fill="#030203" d="
  M 269.16 96.51
  C 268.17 90.93 259.18 92.34 253.52 92.52
  A 0.54 0.54 0.0 0 1 252.97 92.00
  L 252.88 88.18
  Q 252.86 87.62 253.42 87.60
  C 262.85 87.28 274.84 85.50 274.79 97.49
  Q 274.76 105.14 274.86 112.77
  A 0.47 0.47 0.0 0 1 274.39 113.24
  Q 267.53 113.26 260.61 113.25
  Q 255.97 113.24 254.13 111.93
  C 249.77 108.84 250.07 100.12 255.20 97.86
  C 258.17 96.56 264.64 97.28 268.71 97.08
  Q 269.26 97.06 269.16 96.51
  Z
  M 269.25 107.88
  L 269.25 102.42
  A 0.42 0.42 0.0 0 0 268.82 102.00
  L 259.94 102.02
  A 3.18 2.98 -0.1 0 0 256.77 105.00
  L 256.77 105.34
  A 3.18 2.98 -0.1 0 0 259.96 108.32
  L 268.84 108.30
  A 0.42 0.42 0.0 0 0 269.25 107.88
  Z"
/>
<path fill="#030203" d="
  M 306.80 107.53
  L 306.76 88.00
  Q 306.76 87.50 307.25 87.50
  L 311.88 87.51
  Q 312.50 87.51 312.50 88.13
  L 312.49 112.72
  Q 312.49 113.18 312.04 113.19
  Q 303.59 113.42 298.77 113.17
  C 292.05 112.83 289.75 108.53 289.73 102.16
  Q 289.70 95.12 289.68 88.11
  Q 289.68 87.50 290.28 87.50
  L 294.81 87.51
  Q 295.43 87.51 295.42 88.12
  Q 295.36 95.59 295.36 102.99
  C 295.37 108.95 301.54 108.82 306.34 108.06
  Q 306.80 107.99 306.80 107.53
  Z"
/>
<path fill="#030203" d="
  M 330.78 92.40
  L 317.52 92.45
  A 0.69 0.69 0.0 0 1 316.83 91.76
  L 316.81 87.97
  Q 316.81 87.51 317.28 87.51
  L 338.47 87.50
  Q 338.92 87.50 338.98 87.95
  C 339.24 90.24 339.30 91.96 337.63 93.78
  Q 331.26 100.76 324.54 107.75
  A 0.33 0.32 -67.9 0 0 324.77 108.30
  L 338.39 108.31
  Q 339.00 108.31 339.00 108.92
  L 339.00 112.62
  Q 339.00 113.25 338.38 113.25
  L 317.51 113.25
  Q 317.02 113.25 316.93 112.77
  C 316.47 110.25 316.63 108.37 318.55 106.42
  Q 325.00 99.87 331.04 92.96
  Q 331.53 92.39 330.78 92.40
  Z"
/>
<path fill="#030203" d="
  M 360.05 96.49
  C 358.74 90.90 350.19 92.39 344.45 92.49
  Q 343.75 92.50 343.75 91.80
  L 343.75 88.21
  Q 343.75 87.61 344.35 87.59
  C 351.72 87.36 362.06 86.06 364.82 92.57
  Q 365.71 94.69 365.71 100.51
  Q 365.70 106.59 365.68 112.67
  Q 365.68 113.21 365.14 113.22
  Q 357.49 113.32 350.00 113.25
  Q 341.64 113.16 341.95 104.73
  C 342.33 94.57 353.28 97.46 359.62 97.07
  Q 360.18 97.03 360.05 96.49
  Z
  M 360.10 107.71
  L 360.10 102.59
  A 0.61 0.61 0.0 0 0 359.48 101.98
  L 350.64 102.00
  A 2.93 2.78 -0.1 0 0 347.72 104.78
  L 347.72 105.56
  A 2.93 2.78 -0.1 0 0 350.66 108.34
  L 359.50 108.32
  A 0.61 0.61 0.0 0 0 360.10 107.71
  Z"
/>
<path fill="#ffffff" d="
  M 89.96 107.64
  A 0.66 0.66 0.0 0 1 89.31 108.30
  L 80.60 108.32
  A 3.08 3.05 89.9 0 1 77.54 105.24
  L 77.54 105.10
  A 3.08 3.05 89.9 0 1 80.58 102.02
  L 89.29 102.00
  A 0.66 0.66 0.0 0 1 89.96 102.66
  L 89.96 107.64
  Z"
/>
<path fill="#ffffff" d="
  M 269.25 107.88
  A 0.42 0.42 0.0 0 1 268.84 108.30
  L 259.96 108.32
  A 3.18 2.98 -0.1 0 1 256.77 105.34
  L 256.77 105.00
  A 3.18 2.98 -0.1 0 1 259.94 102.02
  L 268.82 102.00
  A 0.42 0.42 0.0 0 1 269.25 102.42
  L 269.25 107.88
  Z"
/>
<path fill="#ffffff" d="
  M 360.10 107.71
  A 0.61 0.61 0.0 0 1 359.50 108.32
  L 350.66 108.34
  A 2.93 2.78 -0.1 0 1 347.72 105.56
  L 347.72 104.78
  A 2.93 2.78 -0.1 0 1 350.64 102.00
  L 359.48 101.98
  A 0.61 0.61 0.0 0 1 360.10 102.59
  L 360.10 107.71
  Z"
/>
<rect fill="#030203" x="-0.86" y="-6.96" transform="translate(84.10,131.34) rotate(0.1)" width="1.72" height="13.92" rx="0.55"/>
<path fill="#030203" d="
  M 89.87 133.24
  C 89.92 137.88 95.54 138.23 96.28 134.26
  Q 96.69 132.04 96.44 125.01
  A 0.68 0.68 0.0 0 1 97.08 124.30
  L 97.42 124.28
  Q 97.94 124.25 98.00 124.76
  C 98.56 129.05 99.46 137.77 93.76 138.44
  C 86.67 139.28 87.85 130.43 88.12 125.05
  Q 88.14 124.57 88.61 124.42
  Q 89.28 124.20 89.68 124.59
  Q 89.96 124.86 89.93 125.49
  Q 89.81 127.88 89.87 133.24
  Z"
/>
<path fill="#030203" d="
  M 103.14 128.54
  Q 102.84 132.85 102.66 137.17
  Q 102.63 137.93 102.24 138.20
  Q 101.88 138.44 101.38 138.28
  Q 100.87 138.12 100.91 137.59
  L 101.79 125.52
  A 1.34 1.34 0.0 0 1 104.40 125.19
  L 107.49 134.49
  A 0.38 0.38 0.0 0 0 108.20 134.50
  L 111.57 125.06
  A 1.32 1.31 -36.9 0 1 114.12 125.42
  L 114.85 137.68
  Q 114.89 138.23 114.33 138.25
  L 113.83 138.26
  Q 113.13 138.28 113.09 137.58
  L 112.64 128.04
  A 0.32 0.32 0.0 0 0 112.02 127.95
  L 108.58 137.71
  A 0.89 0.89 0.0 0 1 106.89 137.69
  L 103.84 128.46
  A 0.36 0.36 0.0 0 0 103.14 128.54
  Z"
/>
<path fill="#030203" d="
  M 155.22 128.72
  C 156.99 130.37 159.88 130.75 160.95 132.63
  C 163.73 137.47 157.31 139.37 153.87 137.93
  Q 153.47 137.76 153.42 137.32
  L 153.35 136.75
  A 0.51 0.51 0.0 0 1 154.11 136.25
  Q 156.48 137.55 158.97 136.35
  A 1.94 1.94 0.0 0 0 158.98 132.86
  C 157.10 131.93 153.43 130.69 153.39 128.20
  C 153.34 124.59 157.53 123.62 160.32 124.72
  Q 161.11 125.03 160.69 126.00
  A 0.51 0.51 0.0 0 1 160.00 126.26
  Q 156.98 124.79 155.09 127.42
  A 0.99 0.98 39.7 0 0 155.22 128.72
  Z"
/>
<path fill="#030203" d="
  M 169.2315 138.5775
  A 7.20 6.34 91.5 0 1 163.0822 131.2140
  A 7.20 6.34 91.5 0 1 169.6085 124.1825
  A 7.20 6.34 91.5 0 1 175.7578 131.5460
  A 7.20 6.34 91.5 0 1 169.2315 138.5775
  Z
  M 169.3802 137.0300
  A 5.68 4.52 90.2 0 0 173.9200 131.3658
  A 5.68 4.52 90.2 0 0 169.4198 125.6700
  A 5.68 4.52 90.2 0 0 164.8800 131.3342
  A 5.68 4.52 90.2 0 0 169.3802 137.0300
  Z"
/>
<path fill="#030203" d="
  M 179.51 128.02
  L 179.75 137.61
  Q 179.77 138.23 179.14 138.26
  L 178.66 138.28
  Q 178.02 138.31 178.02 137.66
  L 178.02 125.27
  A 1.12 1.12 0.0 0 1 180.09 124.68
  L 186.04 134.47
  A 0.37 0.37 0.0 0 0 186.73 134.27
  L 186.53 125.03
  A 0.68 0.67 83.9 0 1 187.07 124.35
  Q 187.76 124.21 188.08 124.60
  Q 188.30 124.86 188.30 125.44
  Q 188.28 131.59 188.24 137.52
  Q 188.23 138.39 187.36 138.43
  Q 187.09 138.45 186.68 138.25
  Q 186.39 138.11 186.20 137.78
  Q 183.30 132.70 180.02 127.86
  Q 179.48 127.06 179.51 128.02
  Z"
/>
<path fill="#030203" d="
  M 197.76 133.99
  L 194.38 133.84
  A 0.78 0.76 11.7 0 0 193.63 134.32
  L 192.13 138.04
  A 0.75 0.74 -52.4 0 1 190.84 138.21
  Q 190.47 137.71 190.72 136.98
  Q 192.79 131.12 194.83 125.22
  Q 195.01 124.70 195.53 124.51
  C 196.64 124.09 197.29 124.67 197.64 125.74
  Q 199.61 131.69 201.67 137.61
  Q 201.90 138.29 201.18 138.28
  L 200.60 138.27
  Q 200.11 138.26 199.94 137.80
  L 198.73 134.69
  Q 198.47 134.02 197.76 133.99
  Z
  M 194.23 131.89
  A 0.51 0.51 0.0 0 0 194.72 132.55
  L 197.48 132.54
  A 0.51 0.51 0.0 0 0 197.96 131.88
  L 196.57 127.44
  A 0.51 0.51 0.0 0 0 195.59 127.44
  L 194.23 131.89
  Z"
/>
<path fill="#030203" d="
  M 205.86 136.77
  L 211.30 136.71
  A 0.32 0.32 0.0 0 1 211.62 136.98
  L 211.78 137.92
  A 0.32 0.32 0.0 0 1 211.46 138.30
  L 204.18 138.22
  A 0.32 0.32 0.0 0 1 203.86 137.90
  L 203.82 124.69
  A 0.32 0.32 0.0 0 1 204.17 124.37
  L 205.24 124.46
  A 0.32 0.32 0.0 0 1 205.53 124.77
  L 205.54 136.45
  A 0.32 0.32 0.0 0 0 205.86 136.77
  Z"
/>
<path fill="#030203" d="
  M 244.85 133.94
  L 241.01 133.90
  A 0.71 0.71 0.0 0 0 240.33 134.37
  L 239.15 137.78
  A 0.89 0.88 -57.6 0 1 237.68 138.11
  Q 237.27 137.68 237.49 137.05
  Q 239.65 130.84 241.94 124.88
  A 0.99 0.98 21.6 0 1 243.24 124.32
  Q 243.76 124.53 244.01 125.17
  Q 246.42 131.42 248.47 137.64
  A 0.81 0.81 0.0 0 1 246.95 138.19
  L 245.45 134.35
  A 0.67 0.65 -10.0 0 0 244.85 133.94
  Z
  M 240.94 131.97
  A 0.41 0.41 0.0 0 0 241.33 132.51
  L 244.54 132.51
  A 0.41 0.41 0.0 0 0 244.92 131.96
  L 243.31 127.28
  A 0.41 0.41 0.0 0 0 242.54 127.29
  L 240.94 131.97
  Z"
/>
<path fill="#030203" d="
  M 264.38 134.53
  L 264.23 124.92
  A 0.58 0.58 0.0 0 1 264.90 124.33
  L 265.39 124.41
  Q 266.01 124.51 266.01 125.14
  L 265.93 137.34
  A 1.08 1.08 0.0 0 1 263.92 137.89
  L 257.83 127.88
  A 0.36 0.36 0.0 0 0 257.16 128.07
  L 257.30 137.74
  Q 257.31 138.28 256.76 138.28
  L 256.23 138.28
  A 0.56 0.55 0.5 0 1 255.68 137.73
  L 255.71 125.50
  A 1.18 1.18 0.0 0 1 257.90 124.89
  L 263.82 134.69
  A 0.30 0.30 0.0 0 0 264.38 134.53
  Z"
/>
<path fill="#030203" d="
  M 282.69 134.34
  L 282.47 125.05
  Q 282.45 124.34 283.15 124.36
  L 283.59 124.37
  Q 284.28 124.39 284.28 125.08
  L 284.24 137.53
  A 0.83 0.83 0.0 0 1 283.30 138.35
  Q 282.77 138.29 282.45 137.84
  Q 279.05 132.99 276.13 127.85
  A 0.34 0.34 0.0 0 0 275.50 128.02
  L 275.54 137.49
  Q 275.54 138.05 275.02 138.24
  Q 274.45 138.43 274.13 138.09
  Q 273.91 137.87 273.91 137.35
  Q 273.91 131.04 274.00 125.19
  A 1.09 1.09 0.0 0 1 276.02 124.64
  L 282.03 134.53
  A 0.36 0.35 28.8 0 0 282.69 134.34
  Z"
/>
<path fill="#030203" d="
  M 347.39 133.92
  L 343.53 133.95
  Q 343.03 133.95 342.86 134.42
  L 341.57 137.89
  Q 341.44 138.25 341.07 138.24
  L 340.36 138.22
  Q 339.76 138.20 339.95 137.63
  L 344.08 125.27
  A 1.32 1.30 4.4 0 1 345.11 124.40
  Q 346.43 124.19 346.88 125.48
  Q 348.99 131.57 350.91 137.72
  A 0.48 0.48 0.0 0 1 350.42 138.34
  L 349.88 138.30
  Q 349.34 138.26 349.17 137.75
  L 348.03 134.38
  Q 347.88 133.92 347.39 133.92
  Z
  M 343.47 132.03
  A 0.41 0.41 0.0 0 0 343.87 132.57
  L 346.98 132.53
  A 0.41 0.41 0.0 0 0 347.36 131.99
  L 345.76 127.40
  A 0.41 0.41 0.0 0 0 344.98 127.41
  L 343.47 132.03
  Z"
/>
<path fill="#030203" d="
  M 354.98 128.00
  L 354.50 137.77
  Q 354.48 138.28 353.98 138.27
  L 353.37 138.26
  Q 352.74 138.25 352.79 137.62
  L 353.69 125.45
  A 1.30 1.30 0.0 0 1 356.21 125.12
  L 359.51 134.67
  A 0.28 0.28 0.0 0 0 360.04 134.67
  L 363.52 124.86
  A 1.33 1.33 0.0 0 1 366.10 125.28
  L 366.37 137.88
  A 0.52 0.52 0.0 0 1 365.90 138.41
  Q 365.06 138.52 365.02 137.75
  Q 364.78 132.79 364.52 128.01
  A 0.31 0.31 0.0 0 0 363.92 127.92
  L 360.45 137.78
  A 0.84 0.84 0.0 0 1 358.86 137.77
  L 355.43 127.93
  A 0.23 0.23 0.0 0 0 354.98 128.00
  Z"
/>
<path fill="#030203" d="
  M 36.54 133.29
  L 36.51 137.84
  A 0.57 0.57 0.0 0 1 35.81 138.39
  L 35.33 138.28
  A 0.70 0.70 0.0 0 1 34.78 137.60
  L 34.76 125.47
  Q 34.76 124.84 35.37 124.69
  C 45.70 122.09 45.80 133.99 37.09 132.81
  Q 36.54 132.73 36.54 133.29
  Z
  M 36.49 126.68
  L 36.53 130.60
  A 0.88 0.88 0.0 0 0 37.42 131.47
  L 37.81 131.47
  A 3.97 2.72 -0.7 0 0 41.75 128.70
  L 41.75 128.46
  A 3.97 2.72 -0.7 0 0 37.75 125.79
  L 37.36 125.79
  A 0.88 0.88 0.0 0 0 36.49 126.68
  Z"
/>
<path fill="#030203" d="
  M 52.33 132.19
  Q 54.06 134.68 54.42 137.76
  A 0.76 0.76 0.0 0 1 52.95 138.11
  C 52.02 135.70 51.94 131.59 48.08 132.29
  Q 47.48 132.40 47.48 133.01
  L 47.50 137.71
  Q 47.50 138.42 46.79 138.36
  L 46.38 138.32
  Q 45.74 138.26 45.75 137.63
  L 45.75 125.06
  A 0.62 0.62 0.0 0 1 46.40 124.44
  L 52.33 124.71
  A 0.79 0.78 72.8 0 1 52.91 125.02
  Q 55.61 128.67 52.43 131.43
  Q 52.04 131.77 52.33 132.19
  Z
  M 47.44 126.82
  L 47.48 129.92
  A 1.04 1.04 0.0 0 0 48.54 130.94
  L 49.04 130.94
  A 3.52 2.39 -0.9 0 0 52.52 128.49
  L 52.52 128.09
  A 3.52 2.39 -0.9 0 0 48.96 125.76
  L 48.46 125.76
  A 1.04 1.04 0.0 0 0 47.44 126.82
  Z"
/>
<path fill="#030203" d="
  M 59.07 130.36
  L 63.19 130.23
  A 0.77 0.77 0.0 0 1 63.28 131.77
  Q 61.25 131.95 59.25 131.64
  A 0.67 0.67 0.0 0 0 58.48 132.29
  L 58.44 136.10
  Q 58.43 136.77 59.10 136.76
  L 63.61 136.71
  A 0.66 0.66 0.0 0 1 64.23 137.10
  L 64.38 137.44
  A 0.60 0.59 -12.1 0 1 63.83 138.28
  L 57.25 138.27
  A 0.52 0.52 0.0 0 1 56.74 137.75
  L 56.71 125.27
  Q 56.71 124.51 57.48 124.50
  L 63.77 124.50
  Q 64.29 124.50 64.25 125.02
  L 64.21 125.62
  A 0.58 0.58 0.0 0 1 63.61 126.15
  L 59.12 125.98
  A 0.64 0.64 0.0 0 0 58.45 126.63
  L 58.50 129.82
  Q 58.50 130.38 59.07 130.36
  Z"
/>
<path fill="#030203" d="
  M 77.70 127.71
  L 74.13 137.61
  A 0.93 0.93 0.0 0 1 72.38 137.59
  L 69.08 127.71
  A 0.22 0.22 0.0 0 0 68.65 127.77
  L 68.14 137.78
  Q 68.10 138.41 67.48 138.33
  L 67.05 138.27
  Q 66.43 138.19 66.47 137.55
  L 67.28 125.54
  A 1.32 1.32 0.0 0 1 69.84 125.20
  L 73.08 134.54
  Q 73.38 135.43 73.70 134.55
  L 77.09 125.10
  A 1.34 1.33 53.4 0 1 79.68 125.49
  L 80.33 137.81
  A 0.55 0.55 0.0 0 1 79.77 138.39
  L 79.35 138.38
  A 0.75 0.74 -0.4 0 1 78.62 137.67
  L 78.17 127.78
  A 0.24 0.24 0.0 0 0 77.70 127.71
  Z"
/>
<path fill="#030203" d="
  M 123.59 133.55
  L 123.73 137.62
  A 0.63 0.63 0.0 0 1 123.13 138.27
  L 122.53 138.30
  A 0.53 0.53 0.0 0 1 121.98 137.77
  L 121.97 125.25
  Q 121.97 124.80 122.40 124.71
  C 132.65 122.50 133.18 133.28 124.22 132.92
  A 0.61 0.60 -0.4 0 0 123.59 133.55
  Z
  M 123.57 126.60
  L 123.73 130.80
  A 0.69 0.69 0.0 0 0 124.44 131.47
  L 125.33 131.43
  A 3.50 2.55 -2.1 0 0 128.74 128.76
  L 128.72 128.28
  A 3.50 2.55 -2.1 0 0 125.13 125.86
  L 124.24 125.89
  A 0.69 0.69 0.0 0 0 123.57 126.60
  Z"
/>
<path fill="#030203" d="
  M 134.57 126.54
  L 134.52 129.65
  Q 134.51 130.34 135.19 130.36
  Q 136.87 130.43 138.48 130.17
  Q 139.67 129.99 140.03 131.02
  A 0.59 0.59 0.0 0 1 139.46 131.81
  L 135.16 131.74
  A 0.61 0.61 0.0 0 0 134.53 132.34
  L 134.49 136.13
  A 0.63 0.63 0.0 0 0 135.13 136.76
  L 139.84 136.71
  A 0.66 0.66 0.0 0 1 140.51 137.33
  L 140.53 137.73
  Q 140.57 138.28 140.02 138.28
  L 133.50 138.25
  Q 132.76 138.25 132.76 137.50
  L 132.78 125.14
  A 0.62 0.62 0.0 0 1 133.40 124.52
  L 139.76 124.51
  A 0.66 0.65 -80.4 0 1 140.37 125.38
  L 140.26 125.71
  Q 140.08 126.22 139.54 126.19
  L 135.21 125.95
  Q 134.58 125.92 134.57 126.54
  Z"
/>
<path fill="#030203" d="
  M 144.59 132.76
  L 144.59 137.79
  Q 144.59 138.29 144.09 138.30
  L 143.61 138.30
  Q 142.92 138.31 142.92 137.61
  L 142.88 125.28
  Q 142.88 124.84 143.30 124.73
  Q 147.09 123.68 150.36 125.57
  A 1.21 1.17 5.1 0 1 150.87 126.16
  Q 152.05 129.20 149.93 131.11
  Q 149.56 131.44 149.72 131.92
  L 151.62 137.44
  A 0.62 0.62 0.0 0 1 151.02 138.26
  L 150.59 138.26
  Q 150.07 138.25 149.92 137.76
  L 148.52 133.18
  Q 148.33 132.56 147.68 132.48
  L 145.25 132.18
  A 0.58 0.58 0.0 0 0 144.59 132.76
  Z
  M 144.52 126.80
  L 144.52 129.82
  A 1.05 1.05 0.0 0 0 145.57 130.87
  L 146.24 130.87
  A 3.48 2.38 -0.1 0 0 149.72 128.49
  L 149.72 128.13
  A 3.48 2.38 -0.1 0 0 146.24 125.75
  L 145.57 125.75
  A 1.05 1.05 0.0 0 0 144.52 126.80
  Z"
/>
<path fill="#030203" d="
  M 219.11 126.02
  L 215.96 126.14
  Q 215.34 126.17 215.35 125.55
  L 215.36 125.13
  Q 215.37 124.53 215.97 124.53
  L 225.06 124.48
  Q 225.65 124.48 225.57 125.06
  L 225.49 125.63
  Q 225.42 126.17 224.87 126.14
  L 222.06 125.98
  Q 221.48 125.94 221.47 126.52
  Q 221.39 131.42 221.67 136.23
  Q 221.72 137.25 221.40 137.93
  A 0.90 0.90 0.0 0 1 219.69 137.54
  L 219.72 126.61
  Q 219.72 126.00 219.11 126.02
  Z"
/>
<path fill="#030203" d="
  M 228.81 133.03
  L 228.95 137.65
  Q 228.97 138.27 228.35 138.26
  L 227.58 138.25
  Q 227.18 138.24 227.18 137.83
  L 227.18 125.46
  A 0.82 0.81 -6.8 0 1 227.81 124.67
  Q 229.95 124.17 231.98 124.48
  C 235.88 125.07 236.97 128.69 233.89 131.36
  Q 233.50 131.70 233.79 132.13
  Q 235.41 134.53 235.86 137.50
  A 0.90 0.90 0.0 0 1 234.10 137.84
  C 233.43 135.01 233.46 131.72 229.42 132.31
  Q 228.79 132.40 228.81 133.03
  Z
  M 228.77 126.93
  L 228.79 129.73
  A 1.16 1.16 0.0 0 0 229.95 130.89
  L 230.79 130.88
  A 3.22 2.43 -0.3 0 0 234.00 128.44
  L 234.00 128.18
  A 3.22 2.43 -0.3 0 0 230.77 125.76
  L 229.93 125.77
  A 1.16 1.16 0.0 0 0 228.77 126.93
  Z"
/>
<rect fill="#030203" x="250.76" y="124.43" width="1.72" height="13.92" rx="0.70"/>
<rect fill="#030203" x="-0.84" y="-6.87" transform="translate(269.93,131.35) rotate(0.1)" width="1.68" height="13.74" rx="0.44"/>
<path fill="#030203" d="
  M 295.76 132.59
  L 293.71 132.19
  A 0.64 0.63 50.5 0 1 293.83 130.93
  L 297.26 130.94
  Q 297.83 130.94 297.84 131.51
  L 297.95 136.57
  Q 297.98 138.01 296.56 138.23
  C 282.41 140.46 283.68 121.82 296.80 124.67
  Q 297.55 124.83 297.46 125.76
  A 0.69 0.68 11.4 0 1 296.56 126.35
  C 285.47 122.85 286.03 139.97 295.86 136.41
  Q 296.32 136.25 296.32 135.76
  L 296.33 133.28
  Q 296.33 132.70 295.76 132.59
  Z"
/>
<path fill="#030203" d="
  M 324.93 126.77
  L 324.87 137.73
  Q 324.86 138.39 324.21 138.34
  L 323.77 138.31
  Q 323.26 138.27 323.26 137.76
  L 323.18 126.64
  Q 323.17 126.11 322.64 126.11
  L 319.51 126.07
  Q 318.96 126.06 318.89 125.52
  L 318.83 125.15
  A 0.55 0.55 0.0 0 1 319.37 124.53
  L 328.52 124.51
  Q 329.05 124.51 329.19 125.02
  Q 329.45 126.02 328.50 126.03
  Q 326.95 126.04 325.39 126.25
  A 0.53 0.52 -3.7 0 0 324.93 126.77
  Z"
/>
<path fill="#030203" d="
  M 332.90 130.37
  L 337.41 130.22
  Q 338.02 130.20 337.91 130.80
  L 337.81 131.31
  Q 337.72 131.82 337.20 131.81
  L 333.14 131.73
  Q 332.50 131.72 332.48 132.36
  L 332.37 135.95
  Q 332.35 136.65 333.05 136.70
  Q 334.67 136.81 337.25 136.71
  Q 338.45 136.66 338.44 137.83
  Q 338.44 138.30 337.97 138.30
  L 331.17 138.25
  A 0.58 0.58 0.0 0 1 330.59 137.67
  L 330.68 125.29
  Q 330.68 124.51 331.46 124.51
  L 337.57 124.50
  Q 338.23 124.50 338.20 125.16
  Q 338.17 125.64 337.86 125.92
  Q 337.61 126.15 337.12 126.13
  Q 335.13 126.05 333.11 126.05
  A 0.71 0.70 -89.6 0 0 332.40 126.76
  L 332.40 129.89
  Q 332.40 130.39 332.90 130.37
  Z"
/>
<path fill="#ffffff" d="
  M 36.49 126.68
  A 0.88 0.88 0.0 0 1 37.36 125.79
  L 37.75 125.79
  A 3.97 2.72 -0.7 0 1 41.75 128.46
  L 41.75 128.70
  A 3.97 2.72 -0.7 0 1 37.81 131.47
  L 37.42 131.47
  A 0.88 0.88 0.0 0 1 36.53 130.60
  L 36.49 126.68
  Z"
/>
<path fill="#ffffff" d="
  M 47.44 126.82
  A 1.04 1.04 0.0 0 1 48.46 125.76
  L 48.96 125.76
  A 3.52 2.39 -0.9 0 1 52.52 128.09
  L 52.52 128.49
  A 3.52 2.39 -0.9 0 1 49.04 130.94
  L 48.54 130.94
  A 1.04 1.04 0.0 0 1 47.48 129.92
  L 47.44 126.82
  Z"
/>
<path fill="#ffffff" d="
  M 123.57 126.60
  A 0.69 0.69 0.0 0 1 124.24 125.89
  L 125.13 125.86
  A 3.50 2.55 -2.1 0 1 128.72 128.28
  L 128.74 128.76
  A 3.50 2.55 -2.1 0 1 125.33 131.43
  L 124.44 131.47
  A 0.69 0.69 0.0 0 1 123.73 130.80
  L 123.57 126.60
  Z"
/>
<path fill="#ffffff" d="
  M 144.52 126.80
  A 1.05 1.05 0.0 0 1 145.57 125.75
  L 146.24 125.75
  A 3.48 2.38 -0.1 0 1 149.72 128.13
  L 149.72 128.49
  A 3.48 2.38 -0.1 0 1 146.24 130.87
  L 145.57 130.87
  A 1.05 1.05 0.0 0 1 144.52 129.82
  L 144.52 126.80
  Z"
/>
<ellipse fill="#ffffff" cx="0.00" cy="0.00" transform="translate(169.40,131.35) rotate(90.2)" rx="5.68" ry="4.52"/>
<path fill="#ffffff" d="
  M 228.77 126.93
  A 1.16 1.16 0.0 0 1 229.93 125.77
  L 230.77 125.76
  A 3.22 2.43 -0.3 0 1 234.00 128.18
  L 234.00 128.44
  A 3.22 2.43 -0.3 0 1 230.79 130.88
  L 229.95 130.89
  A 1.16 1.16 0.0 0 1 228.79 129.73
  L 228.77 126.93
  Z"
/>
<path fill="#ffffff" d="
  M 194.23 131.89
  L 195.59 127.44
  A 0.51 0.51 0.0 0 1 196.57 127.44
  L 197.96 131.88
  A 0.51 0.51 0.0 0 1 197.48 132.54
  L 194.72 132.55
  A 0.51 0.51 0.0 0 1 194.23 131.89
  Z"
/>
<path fill="#ffffff" d="
  M 240.94 131.97
  L 242.54 127.29
  A 0.41 0.41 0.0 0 1 243.31 127.28
  L 244.92 131.96
  A 0.41 0.41 0.0 0 1 244.54 132.51
  L 241.33 132.51
  A 0.41 0.41 0.0 0 1 240.94 131.97
  Z"
/>
<path fill="#ffffff" d="
  M 343.47 132.03
  L 344.98 127.41
  A 0.41 0.41 0.0 0 1 345.76 127.40
  L 347.36 131.99
  A 0.41 0.41 0.0 0 1 346.98 132.53
  L 343.87 132.57
  A 0.41 0.41 0.0 0 1 343.47 132.03
  Z"
/>
<path fill="#030203" d="
  M 310.65 131.99
  L 314.64 132.40
  A 0.41 0.41 0.0 0 1 314.64 133.22
  L 310.64 133.61
  A 0.41 0.41 0.0 0 0 310.28 133.98
  L 309.87 137.97
  A 0.41 0.41 0.0 0 1 309.05 137.97
  L 308.66 133.97
  A 0.41 0.41 0.0 0 0 308.29 133.61
  L 304.30 133.20
  A 0.41 0.41 0.0 0 1 304.30 132.38
  L 308.30 131.99
  A 0.41 0.41 0.0 0 0 308.66 131.62
  L 309.07 127.63
  A 0.41 0.41 0.0 0 1 309.89 127.63
  L 310.28 131.63
  A 0.41 0.41 0.0 0 0 310.65 131.99
  Z"
/>
<path fill="#dad15c" d="
  M 132.29 161.76
  L 127.76 157.58
  A 0.56 0.56 0.0 0 1 128.07 156.62
  L 134.04 155.84
  A 0.56 0.56 0.0 0 0 134.46 155.54
  L 137.30 150.01
  A 0.56 0.56 0.0 0 1 138.30 150.03
  L 140.79 155.41
  A 0.56 0.56 0.0 0 0 141.22 155.72
  L 147.51 156.67
  A 0.56 0.56 0.0 0 1 147.80 157.63
  L 143.29 161.77
  A 0.56 0.56 0.0 0 0 143.12 162.29
  L 144.22 168.22
  A 0.56 0.56 0.0 0 1 143.40 168.81
  L 138.07 165.98
  A 0.56 0.56 0.0 0 0 137.55 165.98
  L 132.12 168.89
  A 0.56 0.56 0.0 0 1 131.30 168.29
  L 132.46 162.28
  A 0.56 0.56 0.0 0 0 132.29 161.76
  Z"
/>
<path fill="#dad15c" d="
  M 166.40 155.44
  L 169.14 150.02
  A 0.58 0.58 0.0 0 1 170.19 150.04
  L 172.73 155.45
  A 0.58 0.58 0.0 0 0 173.17 155.78
  L 179.39 156.70
  A 0.58 0.58 0.0 0 1 179.68 157.72
  L 175.13 161.62
  A 0.58 0.58 0.0 0 0 174.94 162.15
  L 175.96 168.10
  A 0.58 0.58 0.0 0 1 175.13 168.72
  L 169.58 165.95
  A 0.58 0.58 0.0 0 0 169.02 165.98
  L 163.89 169.12
  A 0.58 0.58 0.0 0 1 163.02 168.51
  L 164.32 162.38
  A 0.58 0.58 0.0 0 0 164.15 161.84
  L 159.68 157.66
  A 0.58 0.58 0.0 0 1 159.99 156.66
  L 165.97 155.75
  A 0.58 0.58 0.0 0 0 166.40 155.44
  Z"
/>
<path fill="#dad15c" d="
  M 228.97 155.26
  L 231.27 150.11
  A 0.72 0.72 0.0 0 1 232.59 150.11
  L 234.54 154.48
  A 2.48 2.47 -8.1 0 0 236.49 155.94
  L 241.77 156.63
  A 0.55 0.54 -62.7 0 1 242.07 157.57
  L 237.68 161.71
  Q 237.24 162.12 237.35 162.71
  L 238.42 168.33
  Q 238.56 169.05 237.86 168.82
  Q 235.81 168.15 233.59 166.63
  C 231.62 165.28 228.33 167.89 226.46 168.80
  A 0.71 0.71 0.0 0 1 225.46 168.02
  L 226.58 162.51
  A 1.09 1.07 27.1 0 0 226.24 161.48
  L 222.06 157.75
  A 0.65 0.64 -28.3 0 1 222.40 156.63
  L 228.26 155.79
  A 0.92 0.92 0.0 0 0 228.97 155.26
  Z"
/>
<path fill="#dad15c" d="
  M 259.85 155.41
  L 262.47 149.87
  A 0.56 0.56 0.0 0 1 263.49 149.88
  L 266.00 155.39
  A 0.56 0.56 0.0 0 0 266.43 155.71
  L 272.52 156.65
  A 0.56 0.56 0.0 0 1 272.83 157.60
  L 268.54 161.89
  A 0.56 0.56 0.0 0 0 268.38 162.39
  L 269.50 168.32
  A 0.56 0.56 0.0 0 1 268.69 168.92
  L 263.27 166.06
  A 0.56 0.56 0.0 0 0 262.75 166.06
  L 257.29 168.84
  A 0.56 0.56 0.0 0 1 256.48 168.23
  L 257.69 162.35
  A 0.56 0.56 0.0 0 0 257.52 161.83
  L 253.09 157.64
  A 0.56 0.56 0.0 0 1 253.39 156.68
  L 259.43 155.73
  A 0.56 0.56 0.0 0 0 259.85 155.41
  Z"
/>
<path fill="#dad15c" d="
  M 197.61 155.37
  L 200.33 149.95
  A 0.55 0.55 0.0 0 1 201.32 149.96
  L 203.87 155.42
  A 0.55 0.55 0.0 0 0 204.29 155.73
  L 210.50 156.64
  A 0.55 0.55 0.0 0 1 210.80 157.58
  L 206.27 161.97
  A 0.55 0.55 0.0 0 0 206.12 162.47
  L 207.23 168.25
  A 0.55 0.55 0.0 0 1 206.43 168.85
  L 201.00 166.02
  A 0.55 0.55 0.0 0 0 200.48 166.03
  L 194.99 168.98
  A 0.55 0.55 0.0 0 1 194.19 168.38
  L 195.50 162.39
  A 0.55 0.55 0.0 0 0 195.34 161.87
  L 190.83 157.74
  A 0.55 0.55 0.0 0 1 191.10 156.79
  L 197.22 155.66
  A 0.55 0.55 0.0 0 0 197.61 155.37
  Z"
/>
</svg>
